<?xml version="1.0" encoding="UTF-8" standalone="no"?>
<!-- Created with Inkscape (http://www.inkscape.org/) -->

<svg
   width="104.99999"
   height="99.999977"
   viewBox="0 0 27.781246 26.458327"
   version="1.1"
   id="svg5"
   xml:space="preserve"
   xmlns="http://www.w3.org/2000/svg"
   xmlns:svg="http://www.w3.org/2000/svg"><defs
     id="defs2"><clipPath
       clipPathUnits="userSpaceOnUse"
       id="clipPath25295"><rect
         style="opacity:0.594315;fill:#000000;stroke:#53545d;stroke-width:0;stroke-miterlimit:2;stroke-dasharray:none"
         id="rect25297"
         width="44.727211"
         height="43.426468"
         x="151.60071"
         y="54.556412" /></clipPath></defs><g
     id="layer1"
     transform="translate(-83.343748,-52.916668)"><g
       id="g61273-1-8"
       style="opacity:1;fill:#fa9c0e;fill-opacity:1;stroke:#872f02;stroke-width:1.07524;stroke-dasharray:none;stroke-opacity:1"
       transform="matrix(0.62112631,0,0,0.60927495,-10.81944,19.676627)"
       clip-path="url(#clipPath25295)"><path
         id="path60915-06-3"
         style="opacity:1;fill:#fa9c0e;fill-opacity:1;stroke:#872f02;stroke-width:2.15048;stroke-linecap:round;stroke-linejoin:round;stroke-miterlimit:2;stroke-dasharray:none;stroke-opacity:1"
         d="m 171.68136,55.631897 c -1.15654,3.49158 -4.17418,7.286138 -7.66253,9.601321 -6.14444,4.077986 -11.34183,8.628679 -11.34321,14.859147 -0.002,9.286604 9.53167,16.814909 21.28869,16.815035 4.78817,3.9e-5 9.20616,-1.24874 12.76256,-3.356222 8.21186,-2.081003 14.24099,-1.631113 24.51927,1.580147 l 4.25058,-35.146603 c -9.01557,5.118074 -25.31576,6.037066 -36.54386,0.896519 -2.30167,-1.737956 -4.75199,-3.553905 -7.2715,-5.249344 z" /><g
         id="g61232-3-6-8"
         transform="matrix(0.8608329,0.510129,-0.51847209,0.84698064,123.91158,-213.39192)"
         style="fill:#fa9c0e;fill-opacity:1;stroke:#872f02;stroke-width:1.0787;stroke-dasharray:none;stroke-opacity:1"><ellipse
           style="opacity:1;fill:#ffffff;fill-opacity:1;stroke:#872f02;stroke-width:1.0787;stroke-linecap:round;stroke-linejoin:round;stroke-miterlimit:2;stroke-dasharray:none;stroke-opacity:1"
           id="path61190-1-2-6"
           cx="199.06204"
           cy="218.64038"
           rx="10.020056"
           ry="7.4342351" /><path
           style="fill:#ffffff;fill-opacity:0;stroke:#872f02;stroke-width:1.0787;stroke-linecap:round;stroke-linejoin:round;stroke-dasharray:none;stroke-opacity:1"
           d="m 190.33489,222.19589 c 0,0 1.39855,-5.22457 6.57999,-7.43423 4.2946,-1.83146 9.62756,-0.96969 9.62756,-0.96969"
           id="path61192-2-5-1" /></g><g
         id="g61196-0-2-0"
         transform="matrix(0.771438,-0.62146014,0.58856003,0.81456089,-52.127944,-23.729737)"
         style="fill:#fa9c0e;fill-opacity:1;stroke:#872f02;stroke-width:1.0784;stroke-dasharray:none;stroke-opacity:1"><ellipse
           style="opacity:1;fill:#ffffff;fill-opacity:1;stroke:#872f02;stroke-width:1.0784;stroke-linecap:round;stroke-linejoin:round;stroke-miterlimit:2;stroke-dasharray:none;stroke-opacity:1"
           id="path61186-6-8-4"
           cx="119.11056"
           cy="210.92493"
           rx="9.2728605"
           ry="6.6607866" /><path
           style="opacity:1;fill:#ffffff;fill-opacity:0;stroke:#872f02;stroke-width:1.0784;stroke-linecap:round;stroke-linejoin:round;stroke-dasharray:none;stroke-opacity:1"
           d="m 110.72854,207.95079 c -0.0216,-0.12973 5.2385,-2.04893 9.21199,-0.62336 4.4186,1.58526 7.06023,7.0953 6.99557,7.13409"
           id="path61188-2-1-9" /></g></g></g></svg>
