<?xml version="1.0" encoding="UTF-8" standalone="no"?>
<!-- Created with Inkscape (http://www.inkscape.org/) -->

<svg
   width="104.99999"
   height="99.999992"
   viewBox="0 0 27.781246 26.458332"
   version="1.1"
   id="svg5"
   xml:space="preserve"
   xmlns="http://www.w3.org/2000/svg"
   xmlns:svg="http://www.w3.org/2000/svg"><defs
     id="defs2"><clipPath
       clipPathUnits="userSpaceOnUse"
       id="clipPath17716"><rect
         style="opacity:0.594315;fill:#000000;stroke:#53545d;stroke-width:0;stroke-miterlimit:2;stroke-dasharray:none"
         id="rect17718"
         width="45.568748"
         height="42.860161"
         x="16.883989"
         y="55.211891" /></clipPath></defs><g
     id="layer1"
     transform="translate(-55.562499,-105.83333)"><g
       id="g60778-6-9-45"
       transform="matrix(0.60965571,0,0,0.6173176,45.269078,71.750059)"
       style="opacity:1;stroke-width:1.07822;stroke-dasharray:none"
       clip-path="url(#clipPath17716)"><path
         id="path52676-7-0-8"
         style="opacity:1;fill:#0c55ce;fill-opacity:1;stroke:#0e1184;stroke-width:2.15644;stroke-linecap:round;stroke-linejoin:round;stroke-miterlimit:2;stroke-dasharray:none;stroke-opacity:1"
         d="m 39.670908,56.290092 c -4.616513,2.44e-4 -8.904522,1.205241 -12.432233,3.232929 -7.068137,3.369024 -14.136251,3.402549 -21.2043878,-0.239415 v 32.145122 c 6.9226708,-2.483678 14.1420818,-2.593427 21.6994058,0 v -0.09543 c 5.333725,3.683177 12.121583,5.660555 18.441951,5.660555 4.241207,0 8.164658,-0.125823 11.812614,-1.588003 -2.197278,-1.201728 -3.461733,-2.929934 -3.461733,-5.811235 0,-4.253519 6.848027,-5.661959 6.848027,-16.06419 0,-9.60269 -9.94568,-17.240955 -21.703644,-17.240333 z" /><g
         id="g55532-0-1-17"
         style="stroke-width:1.07822;stroke-dasharray:none"><path
           style="opacity:1;fill:#ffffff;fill-opacity:1;stroke:#0e1184;stroke-width:1.07822;stroke-linecap:round;stroke-linejoin:round;stroke-dasharray:none;stroke-opacity:1"
           d="m 40.095328,64.583518 c 0,3.322676 0.03005,7.103408 0.0653,10.317691 0.05056,4.610708 5.184957,7.248504 8.946354,7.248504 4.953327,0 10.121783,-2.343218 10.121783,-11.493124 -5.18504,1.257922 -13.406918,0.293114 -19.133439,-6.073071 z"
           id="path55369-4-5-5" /><path
           id="path55369-2-0-7-1-1"
           style="opacity:1;fill:#011ab7;fill-opacity:1;stroke:#0e1184;stroke-width:1.07822;stroke-linecap:round;stroke-linejoin:round;stroke-dasharray:none;stroke-opacity:1"
           d="m 43.277362,67.438842 v 5.67718 0.26148 h 0.0098 a 5.2894492,5.2894492 0 0 0 5.279781,5.02812 5.2894492,5.2894492 0 0 0 5.279264,-5.02812 h 0.0098 v -0.26148 -1.97456 c -3.420022,-0.2039 -7.212038,-1.28525 -10.578682,-3.70262 z" /></g><g
         id="g55532-4-9-5-7"
         transform="matrix(-1,0,0,1,79.178477,0)"
         style="opacity:1;stroke-width:1.07822;stroke-dasharray:none"><path
           style="opacity:1;fill:#ffffff;fill-opacity:1;stroke:#0e1184;stroke-width:1.07822;stroke-linecap:round;stroke-linejoin:round;stroke-dasharray:none;stroke-opacity:1"
           d="m 40.095328,64.583518 c 0,3.322676 0.03005,7.103408 0.0653,10.317691 0.05056,4.610708 5.184957,7.248504 8.946354,7.248504 4.953327,0 10.121783,-2.343218 10.121783,-11.493124 -5.18504,1.257922 -13.406918,0.293114 -19.133439,-6.073071 z"
           id="path55369-9-6-9-0" /><path
           id="path55369-2-0-0-2-9-6"
           style="opacity:1;fill:#011ab7;fill-opacity:1;stroke:#0e1184;stroke-width:1.07822;stroke-linecap:round;stroke-linejoin:round;stroke-dasharray:none;stroke-opacity:1"
           d="m 43.277362,67.438842 v 5.67718 0.26148 h 0.0098 a 5.2894492,5.2894492 0 0 0 5.279781,5.02812 5.2894492,5.2894492 0 0 0 5.279264,-5.02812 h 0.0098 v -0.26148 -1.97456 c -3.420022,-0.2039 -7.212038,-1.28525 -10.578682,-3.70262 z" /></g></g></g></svg>
