<?xml version="1.0" encoding="UTF-8" standalone="no"?>
<!-- Created with Inkscape (http://www.inkscape.org/) -->

<svg
   width="104.99999"
   height="99.999992"
   viewBox="0 0 27.781246 26.458332"
   version="1.1"
   id="svg5"
   xml:space="preserve"
   xmlns="http://www.w3.org/2000/svg"
   xmlns:svg="http://www.w3.org/2000/svg"><defs
     id="defs2"><clipPath
       clipPathUnits="userSpaceOnUse"
       id="clipPath18417"><rect
         style="opacity:0.594315;fill:#000000;stroke:#53545d;stroke-width:0;stroke-miterlimit:2;stroke-dasharray:none"
         id="rect18419"
         width="45.56876"
         height="42.860161"
         x="16.883997"
         y="55.211884" /></clipPath></defs><g
     id="layer1"
     transform="translate(-55.562499,-211.66666)"><g
       id="g60778-6-9-5-1"
       transform="matrix(0.60965556,0,0,0.6173176,45.269076,177.58339)"
       style="opacity:1;stroke-width:1.07822;stroke-dasharray:none"
       clip-path="url(#clipPath18417)"><path
         id="path52676-7-0-9-6"
         style="opacity:1;fill:#0c55ce;fill-opacity:1;stroke:#0e1184;stroke-width:2.15644;stroke-linecap:round;stroke-linejoin:round;stroke-miterlimit:2;stroke-dasharray:none;stroke-opacity:1"
         d="m 39.670921,56.290083 c -11.942387,6.31e-4 -21.708735,8.038325 -21.708735,17.62959 0,5.918654 2.490303,10.834178 6.325039,14.585849 2.043939,5.688999 2.121741,11.378041 -0.893405,17.067048 H 55.942936 C 53.627257,100.55966 53.257012,95.546756 54.50535,90.533846 60.538074,88.968542 66.794911,89.195539 73.302464,91.428719 V 59.283597 c -6.785053,3.383486 -13.57001,3.698224 -20.355064,0.647926 -3.700834,-2.284315 -8.326186,-3.641702 -13.276479,-3.64144 z" /><g
         id="g55532-0-1-2-2"
         style="stroke-width:1.07822;stroke-dasharray:none"><path
           style="opacity:1;fill:#ffffff;fill-opacity:1;stroke:#0e1184;stroke-width:1.07822;stroke-linecap:round;stroke-linejoin:round;stroke-dasharray:none;stroke-opacity:1"
           d="m 40.095328,64.583518 c 0,3.322676 0.03005,7.103408 0.0653,10.317691 0.05056,4.610708 5.184957,7.248504 8.946354,7.248504 4.953327,0 10.121783,-2.343218 10.121783,-11.493124 -5.18504,1.257922 -13.406918,0.293114 -19.133439,-6.073071 z"
           id="path55369-4-5-06-7" /><path
           id="path55369-2-0-7-1-37-0"
           style="opacity:1;fill:#011ab7;fill-opacity:1;stroke:#0e1184;stroke-width:1.07822;stroke-linecap:round;stroke-linejoin:round;stroke-dasharray:none;stroke-opacity:1"
           d="m 43.277362,67.438842 v 5.67718 0.26148 h 0.0098 a 5.2894492,5.2894492 0 0 0 5.279781,5.02812 5.2894492,5.2894492 0 0 0 5.279264,-5.02812 h 0.0098 v -0.26148 -1.97456 c -3.420022,-0.2039 -7.212038,-1.28525 -10.578682,-3.70262 z" /></g><g
         id="g55532-4-9-5-9-53"
         transform="matrix(-1,0,0,1,79.178477,0)"
         style="opacity:1;stroke-width:1.07822;stroke-dasharray:none"><path
           style="opacity:1;fill:#ffffff;fill-opacity:1;stroke:#0e1184;stroke-width:1.07822;stroke-linecap:round;stroke-linejoin:round;stroke-dasharray:none;stroke-opacity:1"
           d="m 40.095328,64.583518 c 0,3.322676 0.03005,7.103408 0.0653,10.317691 0.05056,4.610708 5.184957,7.248504 8.946354,7.248504 4.953327,0 10.121783,-2.343218 10.121783,-11.493124 -5.18504,1.257922 -13.406918,0.293114 -19.133439,-6.073071 z"
           id="path55369-9-6-9-2-7" /><path
           id="path55369-2-0-0-2-9-22-6"
           style="opacity:1;fill:#011ab7;fill-opacity:1;stroke:#0e1184;stroke-width:1.07822;stroke-linecap:round;stroke-linejoin:round;stroke-dasharray:none;stroke-opacity:1"
           d="m 43.277362,67.438842 v 5.67718 0.26148 h 0.0098 a 5.2894492,5.2894492 0 0 0 5.279781,5.02812 5.2894492,5.2894492 0 0 0 5.279264,-5.02812 h 0.0098 v -0.26148 -1.97456 c -3.420022,-0.2039 -7.212038,-1.28525 -10.578682,-3.70262 z" /></g></g></g></svg>
