<?xml version="1.0" encoding="UTF-8" standalone="no"?>
<!-- Created with Inkscape (http://www.inkscape.org/) -->

<svg
   width="105.00004"
   height="100"
   viewBox="0 0 27.781258 26.458334"
   version="1.1"
   id="svg5"
   xml:space="preserve"
   xmlns="http://www.w3.org/2000/svg"
   xmlns:svg="http://www.w3.org/2000/svg"><defs
     id="defs2" /><g
     id="layer1"
     transform="translate(-55.56249,-449.79167)"><g
       id="g17713-1-3"
       transform="matrix(0.99970387,0,0,1.0003139,142.31768,-107.31833)"
       style="opacity:0.5;stroke-width:0.999995"><path
         id="path52676-3-0-5"
         style="opacity:1;fill:#0c55ce;fill-opacity:0.5;stroke:#0e1184;stroke-width:1.32291;stroke-linecap:round;stroke-linejoin:round;stroke-miterlimit:2;stroke-dasharray:none;stroke-opacity:1"
         d="m -72.884568,557.59663 c -7.280752,3.9e-4 -13.234865,4.96209 -13.234865,10.88295 0,9.00103 9.212901,14.24417 17.20027,14.24417 2.585679,0 4.977661,-0.0775 7.201661,-0.98015 -1.339584,-0.74185 -2.110058,-1.80899 -2.110058,-3.58766 0,-2.62578 4.174706,-3.49509 4.174706,-9.91657 0,-5.92792 -6.063398,-10.64312 -13.231714,-10.64274 z" /><g
         id="g17672-4-0"
         transform="translate(0,0.06560532)"
         style="stroke-width:0.999995"><path
           id="path17527-7-3"
           style="opacity:1;fill:#ffffff;fill-opacity:1;stroke:#0e1184;stroke-width:0.661452;stroke-linecap:butt;stroke-linejoin:round;stroke-dasharray:none;stroke-opacity:1"
           d="m -76.328156,561.44636 c -4.38276,0 -9.45627,4.36333 -9.45627,5.81825 0,5.56198 2.627919,8.51149 7.304981,8.40362 2.47997,0 4.215747,-1.66946 5.000728,-3.04736 0.221362,-0.38856 0.415138,-1.09877 0.54932,-1.99213 0.134183,0.89336 0.327959,1.60357 0.549321,1.99213 0.784981,1.3779 2.520757,3.04736 5.000728,3.04736 4.677061,0.10787 7.30498,-2.84164 7.30498,-8.40362 0,-1.45492 -5.073509,-5.81825 -9.45627,-5.81825 -0.835701,-3.7e-4 -2.383948,0.19565 -2.733683,1.06195 -0.313062,0.77546 -0.528055,1.6665 -0.665076,2.59312 -0.13702,-0.92662 -0.352013,-1.81766 -0.665075,-2.59312 -0.349735,-0.8663 -1.897982,-1.06232 -2.733684,-1.06195 z" /><circle
           style="opacity:1;fill:#0e1184;fill-opacity:1;stroke:#0e1184;stroke-width:0.661452;stroke-linecap:square;stroke-linejoin:miter;stroke-miterlimit:2;stroke-dasharray:none;stroke-opacity:1"
           id="path17582-7-0"
           cx="-66.826965"
           cy="568.13062"
           r="0.72760427" /><circle
           style="opacity:1;fill:#0e1184;fill-opacity:1;stroke:#0e1184;stroke-width:0.661452;stroke-linecap:square;stroke-linejoin:miter;stroke-miterlimit:2;stroke-dasharray:none;stroke-opacity:1"
           id="path17582-0-5-2"
           cx="-66.826965"
           cy="568.13062"
           r="0.72760427"
           transform="matrix(-1,0,0,1,-145.85878,0)" /></g></g></g></svg>
