<?xml version="1.0" encoding="UTF-8" standalone="no"?>
<!-- Created with Inkscape (http://www.inkscape.org/) -->

<svg
   width="104.99999"
   height="99.999992"
   viewBox="0 0 27.781246 26.458332"
   version="1.1"
   id="svg5"
   xml:space="preserve"
   xmlns="http://www.w3.org/2000/svg"
   xmlns:svg="http://www.w3.org/2000/svg"><defs
     id="defs2"><clipPath
       clipPathUnits="userSpaceOnUse"
       id="clipPath3891"><rect
         style="opacity:0.594315;fill:#000000;stroke:#53545d;stroke-width:0;stroke-miterlimit:2;stroke-dasharray:none"
         id="rect3893"
         width="46.525181"
         height="42.704208"
         x="-28.341013"
         y="214.64961"
         transform="rotate(-21.469327)" /></clipPath></defs><g
     id="layer1"
     transform="translate(-111.125,-105.83334)"><g
       id="g67942-8-4-7"
       transform="matrix(0.55569064,0.22676759,-0.2185488,0.57658807,128.04807,-27.159193)"
       style="opacity:1;stroke-width:1.08748;stroke-dasharray:none"
       clip-path="url(#clipPath3891)"><path
         id="path63689-5-41-1"
         style="opacity:1;fill:#9a37d4;fill-opacity:1;stroke:#4b117e;stroke-width:2.17498;stroke-linecap:round;stroke-linejoin:round;stroke-miterlimit:2;stroke-dasharray:none;stroke-opacity:1"
         d="m 71.149832,203.5486 a 22.539484,19.850119 0 0 0 -9.579488,8.05147 l -0.06971,-0.15425 c -4.881841,5.78715 -10.253677,8.83735 -17.796012,7.8298 l 13.101583,29.21282 c 4.94324,-4.56727 10.007148,-8.11394 17.226549,-8.37142 a 22.539484,19.850119 0 0 0 7.163895,1.05123 22.539484,19.850119 0 0 0 22.539801,-19.85016 22.539484,19.850119 0 0 0 -22.540081,-19.85047 22.539484,19.850119 0 0 0 -10.04654,2.08098 z"
         transform="matrix(0.99999787,0.00206485,0.00205573,0.99999789,0,0)" /><g
         id="g63741-0-0-6"
         style="opacity:1;stroke-width:1.08748;stroke-dasharray:none"
         transform="rotate(-3.2186946,92.533883,225.74625)"><path
           style="opacity:1;fill:#ffffff;fill-opacity:1;stroke:#4b117e;stroke-width:1.08748;stroke-linecap:butt;stroke-linejoin:miter;stroke-dasharray:none;stroke-opacity:1"
           d="m 85.470615,220.3027 h 15.145525 c 0.75561,0 1.93937,0.72201 1.93937,1.80084 0,5.36757 -4.690518,9.09655 -9.927714,9.09655 -7.097862,0 -10.229256,-3.70856 -10.112405,-8.63479 0.03927,-1.65563 1.714583,-2.2626 2.955224,-2.2626 z"
           id="path63695-4-0-3" /><path
           id="path63695-1-6-0-7"
           style="opacity:1;fill:#591ca3;fill-opacity:1;stroke:#4b117e;stroke-width:1.08748;stroke-linecap:butt;stroke-linejoin:miter;stroke-dasharray:none;stroke-opacity:1"
           d="m 85.686578,220.29241 a 6.1182365,6.1182365 0 0 0 -0.376205,2.10065 6.1182365,6.1182365 0 0 0 6.11849,6.11849 6.1182365,6.1182365 0 0 0 6.117973,-6.11849 6.1182365,6.1182365 0 0 0 -0.37259,-2.10065 z" /></g><g
         id="g63741-7-0-52-6"
         style="opacity:1;stroke-width:1.08748;stroke-dasharray:none"
         transform="matrix(-0.9984225,-0.05614728,-0.05614728,0.9984225,176.64623,5.2251315)"><path
           style="opacity:1;fill:#ffffff;fill-opacity:1;stroke:#4b117e;stroke-width:1.08748;stroke-linecap:butt;stroke-linejoin:miter;stroke-dasharray:none;stroke-opacity:1"
           d="m 85.470615,220.3027 h 15.145525 c 0.75561,0 1.93937,0.72201 1.93937,1.80084 0,5.36757 -4.690518,9.09655 -9.927714,9.09655 -7.097862,0 -10.229256,-3.70856 -10.112405,-8.63479 0.03927,-1.65563 1.714583,-2.2626 2.955224,-2.2626 z"
           id="path63695-2-8-3-6" /><path
           id="path63695-1-8-7-6-9"
           style="opacity:1;fill:#591ca3;fill-opacity:1;stroke:#4b117e;stroke-width:1.08748;stroke-linecap:butt;stroke-linejoin:miter;stroke-dasharray:none;stroke-opacity:1"
           d="m 85.686578,220.29241 a 6.1182365,6.1182365 0 0 0 -0.376205,2.10065 6.1182365,6.1182365 0 0 0 6.11849,6.11849 6.1182365,6.1182365 0 0 0 6.117973,-6.11849 6.1182365,6.1182365 0 0 0 -0.37259,-2.10065 z" /></g></g></g></svg>
