<?xml version="1.0" encoding="UTF-8" standalone="no"?>
<!-- Created with Inkscape (http://www.inkscape.org/) -->

<svg
   width="104.99998"
   height="100.00001"
   viewBox="0 0 27.781242 26.458336"
   version="1.1"
   id="svg5"
   xml:space="preserve"
   xmlns="http://www.w3.org/2000/svg"
   xmlns:svg="http://www.w3.org/2000/svg"><defs
     id="defs2"><clipPath
       clipPathUnits="userSpaceOnUse"
       id="clipPath3287"><rect
         style="opacity:0.594315;fill:#000000;stroke:#53545d;stroke-width:0;stroke-miterlimit:2;stroke-dasharray:none"
         id="rect3289"
         width="46.525181"
         height="42.704208"
         x="-28.341013"
         y="214.64961"
         transform="rotate(-21.469327)" /></clipPath></defs><g
     id="layer1"
     transform="translate(-111.125,-158.75)"><g
       id="g67942-8-1-7"
       transform="matrix(0.55597431,0.22676528,-0.21866037,0.57658219,128.05131,25.759098)"
       style="opacity:1;stroke-width:1.08721;stroke-dasharray:none"
       clip-path="url(#clipPath3287)"><path
         id="path63689-5-4-4"
         style="opacity:1;fill:#9a37d4;fill-opacity:1;stroke:#4b117e;stroke-width:2.17444;stroke-linecap:round;stroke-linejoin:round;stroke-miterlimit:2;stroke-dasharray:none;stroke-opacity:1"
         d="m 55.378209,199.19201 c 4.433789,3.89638 6.512828,7.2269 5.884005,12.89517 a 22.539484,19.850119 0 0 0 -2.605633,9.23061 22.539484,19.850119 0 0 0 12.460008,17.7527 c 4.66148,4.14384 6.63639,7.68881 5.48508,14.17486 l 30.886291,-9.54152 c -4.74845,-4.05201 -6.2644,-7.9981 -5.86589,-13.99935 a 22.539484,19.850119 0 0 0 2.11438,-8.38638 22.539484,19.850119 0 0 0 -12.070655,-17.56174 c -4.675894,-4.09595 -6.071993,-8.12686 -5.548841,-14.33056 z"
         transform="matrix(0.99999787,0.00206485,0.00205573,0.99999789,0,0)" /><g
         id="g63741-0-1-8"
         style="opacity:1;stroke-width:1.08721;stroke-dasharray:none"
         transform="rotate(-3.2186946,92.533883,225.74625)"><path
           style="opacity:1;fill:#ffffff;fill-opacity:1;stroke:#4b117e;stroke-width:1.08721;stroke-linecap:butt;stroke-linejoin:miter;stroke-dasharray:none;stroke-opacity:1"
           d="m 85.470615,220.3027 h 15.145525 c 0.75561,0 1.93937,0.72201 1.93937,1.80084 0,5.36757 -4.690518,9.09655 -9.927714,9.09655 -7.097862,0 -10.229256,-3.70856 -10.112405,-8.63479 0.03927,-1.65563 1.714583,-2.2626 2.955224,-2.2626 z"
           id="path63695-4-5-2" /><path
           id="path63695-1-6-3-7"
           style="opacity:1;fill:#591ca3;fill-opacity:1;stroke:#4b117e;stroke-width:1.08721;stroke-linecap:butt;stroke-linejoin:miter;stroke-dasharray:none;stroke-opacity:1"
           d="m 85.686578,220.29241 a 6.1182365,6.1182365 0 0 0 -0.376205,2.10065 6.1182365,6.1182365 0 0 0 6.11849,6.11849 6.1182365,6.1182365 0 0 0 6.117973,-6.11849 6.1182365,6.1182365 0 0 0 -0.37259,-2.10065 z" /></g><g
         id="g63741-7-0-5-9"
         style="opacity:1;stroke-width:1.08721;stroke-dasharray:none"
         transform="matrix(-0.9984225,-0.05614728,-0.05614728,0.9984225,176.64623,5.2251315)"><path
           style="opacity:1;fill:#ffffff;fill-opacity:1;stroke:#4b117e;stroke-width:1.08721;stroke-linecap:butt;stroke-linejoin:miter;stroke-dasharray:none;stroke-opacity:1"
           d="m 85.470615,220.3027 h 15.145525 c 0.75561,0 1.93937,0.72201 1.93937,1.80084 0,5.36757 -4.690518,9.09655 -9.927714,9.09655 -7.097862,0 -10.229256,-3.70856 -10.112405,-8.63479 0.03927,-1.65563 1.714583,-2.2626 2.955224,-2.2626 z"
           id="path63695-2-8-6-2" /><path
           id="path63695-1-8-7-2-3"
           style="opacity:1;fill:#591ca3;fill-opacity:1;stroke:#4b117e;stroke-width:1.08721;stroke-linecap:butt;stroke-linejoin:miter;stroke-dasharray:none;stroke-opacity:1"
           d="m 85.686578,220.29241 a 6.1182365,6.1182365 0 0 0 -0.376205,2.10065 6.1182365,6.1182365 0 0 0 6.11849,6.11849 6.1182365,6.1182365 0 0 0 6.117973,-6.11849 6.1182365,6.1182365 0 0 0 -0.37259,-2.10065 z" /></g></g></g></svg>
