<?xml version="1.0" encoding="UTF-8" standalone="no"?>
<!-- Created with Inkscape (http://www.inkscape.org/) -->

<svg
   width="105"
   height="99.999985"
   viewBox="0 0 27.781248 26.458329"
   version="1.1"
   id="svg5"
   xml:space="preserve"
   xmlns="http://www.w3.org/2000/svg"
   xmlns:svg="http://www.w3.org/2000/svg"><defs
     id="defs2"><clipPath
       clipPathUnits="userSpaceOnUse"
       id="clipPath6337-2"><rect
         style="opacity:0.594315;fill:#000000;stroke:#53545d;stroke-width:0;stroke-miterlimit:2;stroke-dasharray:none"
         id="rect6339-9"
         width="44.298168"
         height="42.339111"
         x="-73.455498"
         y="24.857685" /></clipPath></defs><g
     id="layer1"
     transform="translate(-7.4784065e-7,-264.58333)"><g
       id="g35933-2-07-9"
       transform="matrix(0.62714217,0,0,0.62491807,46.067041,249.04917)"
       style="stroke-width:1.05659;stroke-dasharray:none"
       clip-path="url(#clipPath6337-2)"><path
         id="path35006-4-8-6"
         style="opacity:1;fill:#2bc224;fill-opacity:1;stroke:#1c5a33;stroke-width:2.11318;stroke-linecap:round;stroke-linejoin:round;stroke-miterlimit:2;stroke-dasharray:none;stroke-opacity:1"
         d="m -51.306411,25.914509 a 21.092493,20.112965 0 0 0 -13.502044,4.688726 c -6.046494,3.110615 -12.093014,3.064555 -18.139508,-0.453161 v 31.754335 c 5.411108,-2.191979 11.029988,-2.510454 16.881262,-0.726877 1.796401,4.829018 1.772956,9.658061 -1.060486,14.487088 h 31.641551 c -2.70208,-5.283566 -2.679632,-10.567151 -0.481215,-15.850705 a 21.092493,20.112965 0 0 0 5.753159,-13.786674 21.092493,20.112965 0 0 0 -21.092719,-20.112732 z" /><g
         id="g35166-0-72-0"
         transform="matrix(0.69360728,-0.68596458,0.63594549,0.70522632,-29.986968,-85.846997)"
         style="stroke-width:1.09837;stroke-dasharray:none"><ellipse
           style="opacity:1;fill:#ffffff;fill-opacity:1;stroke:#1c5a33;stroke-width:1.09837;stroke-linecap:round;stroke-linejoin:round;stroke-miterlimit:2;stroke-dasharray:none;stroke-opacity:1"
           id="path35006-2-5-2-1"
           cx="-109.44587"
           cy="70.39537"
           rx="11.427821"
           ry="8.4892378" /><ellipse
           style="opacity:1;fill:#057f1c;fill-opacity:1;stroke:#1c5a33;stroke-width:1.09837;stroke-linecap:round;stroke-linejoin:round;stroke-miterlimit:2;stroke-dasharray:none;stroke-opacity:1"
           id="path35006-2-0-3-27-4"
           cx="-107.68273"
           cy="68.566933"
           rx="8.7504454"
           ry="6.1383715" /></g><g
         id="g35166-8-9-42-3"
         transform="matrix(-0.69360728,-0.68596458,-0.63594549,0.70522632,-72.315402,-85.25928)"
         style="stroke-width:1.09837;stroke-dasharray:none"><ellipse
           style="opacity:1;fill:#ffffff;fill-opacity:1;stroke:#1c5a33;stroke-width:1.09837;stroke-linecap:round;stroke-linejoin:round;stroke-miterlimit:2;stroke-dasharray:none;stroke-opacity:1"
           id="path35006-2-4-5-2-9"
           cx="-109.44587"
           cy="70.39537"
           rx="11.427821"
           ry="8.4892378" /><ellipse
           style="opacity:1;fill:#057f1c;fill-opacity:1;stroke:#1c5a33;stroke-width:1.09837;stroke-linecap:round;stroke-linejoin:round;stroke-miterlimit:2;stroke-dasharray:none;stroke-opacity:1"
           id="path35006-2-0-0-4-86-2"
           cx="-107.68273"
           cy="68.566933"
           rx="8.7504454"
           ry="6.1383715" /></g></g></g></svg>
