<?xml version="1.0" encoding="UTF-8" standalone="no"?>
<!-- Created with Inkscape (http://www.inkscape.org/) -->

<svg
   width="104.99999"
   height="99.999985"
   viewBox="0 0 27.781246 26.458329"
   version="1.1"
   id="svg5"
   xml:space="preserve"
   xmlns="http://www.w3.org/2000/svg"
   xmlns:svg="http://www.w3.org/2000/svg"><defs
     id="defs2"><clipPath
       clipPathUnits="userSpaceOnUse"
       id="clipPath7653-2"><rect
         style="opacity:0.594315;fill:#000000;stroke:#53545d;stroke-width:0;stroke-miterlimit:2;stroke-dasharray:none"
         id="rect7655-5"
         width="44.298168"
         height="42.339111"
         x="-73.455498"
         y="24.857685" /></clipPath></defs><g
     id="layer1"
     transform="translate(-4.2061554e-7,-370.41666)"><g
       id="g35933-2-07"
       transform="matrix(0.62714212,0,0,0.62491807,46.067037,354.8825)"
       style="stroke-width:1.05659;stroke-dasharray:none"
       clip-path="url(#clipPath7653-2)"><path
         id="path35006-4-31"
         style="opacity:1;fill:#2bc224;fill-opacity:1;stroke:#1c5a33;stroke-width:2.11318;stroke-linecap:round;stroke-linejoin:round;stroke-miterlimit:2;stroke-dasharray:none;stroke-opacity:1"
         d="m -51.306411,25.914509 a 21.092493,20.112965 0 0 0 -13.502044,4.688726 c -6.046494,3.110601 -12.093014,3.06454 -18.139508,-0.453161 v 31.754335 c 5.411108,-2.191979 11.029988,-2.510454 16.881262,-0.726877 1.796401,4.829025 1.772956,9.658061 -1.060486,14.487088 h 31.641551 c -2.478222,-4.845842 -2.663454,-9.691692 -0.981382,-14.537531 5.387926,-1.662648 10.980394,-1.478394 16.802158,0.77732 V 30.150074 c -5.995173,3.37551 -11.990247,3.658838 -17.98542,0.549085 a 21.092493,20.112965 0 0 0 -13.656131,-4.78465 z" /><g
         id="g35166-0-4"
         transform="matrix(0.69360728,-0.68596458,0.63594549,0.70522632,-29.986968,-85.846997)"
         style="stroke-width:1.09837;stroke-dasharray:none"><ellipse
           style="opacity:1;fill:#ffffff;fill-opacity:1;stroke:#1c5a33;stroke-width:1.09837;stroke-linecap:round;stroke-linejoin:round;stroke-miterlimit:2;stroke-dasharray:none;stroke-opacity:1"
           id="path35006-2-5-60"
           cx="-109.44587"
           cy="70.39537"
           rx="11.427821"
           ry="8.4892378" /><ellipse
           style="opacity:1;fill:#057f1c;fill-opacity:1;stroke:#1c5a33;stroke-width:1.09837;stroke-linecap:round;stroke-linejoin:round;stroke-miterlimit:2;stroke-dasharray:none;stroke-opacity:1"
           id="path35006-2-0-3-8"
           cx="-107.68273"
           cy="68.566933"
           rx="8.7504454"
           ry="6.1383715" /></g><g
         id="g35166-8-9-77"
         transform="matrix(-0.69360728,-0.68596458,-0.63594549,0.70522632,-72.315402,-85.25928)"
         style="stroke-width:1.09837;stroke-dasharray:none"><ellipse
           style="opacity:1;fill:#ffffff;fill-opacity:1;stroke:#1c5a33;stroke-width:1.09837;stroke-linecap:round;stroke-linejoin:round;stroke-miterlimit:2;stroke-dasharray:none;stroke-opacity:1"
           id="path35006-2-4-5-01"
           cx="-109.44587"
           cy="70.39537"
           rx="11.427821"
           ry="8.4892378" /><ellipse
           style="opacity:1;fill:#057f1c;fill-opacity:1;stroke:#1c5a33;stroke-width:1.09837;stroke-linecap:round;stroke-linejoin:round;stroke-miterlimit:2;stroke-dasharray:none;stroke-opacity:1"
           id="path35006-2-0-0-4-84"
           cx="-107.68273"
           cy="68.566933"
           rx="8.7504454"
           ry="6.1383715" /></g></g></g></svg>
