<?xml version="1.0" encoding="UTF-8" standalone="no"?>
<!-- Created with Inkscape (http://www.inkscape.org/) -->

<svg
   width="105"
   height="99.999985"
   viewBox="0 0 27.781248 26.458329"
   version="1.1"
   id="svg5"
   xml:space="preserve"
   xmlns="http://www.w3.org/2000/svg"
   xmlns:svg="http://www.w3.org/2000/svg"><defs
     id="defs2"><clipPath
       clipPathUnits="userSpaceOnUse"
       id="clipPath2846-2"><rect
         style="opacity:0.485788;fill:#000000;stroke:#53545d;stroke-width:0;stroke-miterlimit:2;stroke-dasharray:none"
         id="rect2848-5"
         width="44.298172"
         height="42.339111"
         x="-73.455505"
         y="24.857685" /></clipPath></defs><g
     id="layer1"
     transform="translate(3.6409912e-7,-26.458333)"><g
       id="g35933-2-9-6-6"
       transform="matrix(0.62714212,0,0,0.62491824,46.067041,10.924312)"
       style="stroke-width:1.05659;stroke-dasharray:none"
       clip-path="url(#clipPath2846-2)"><path
         id="path35006-4-7-8-7"
         style="opacity:1;fill:#2bc224;fill-opacity:1;stroke:#1c5a33;stroke-width:2.11318;stroke-linecap:round;stroke-linejoin:round;stroke-miterlimit:2;stroke-dasharray:none;stroke-opacity:1"
         d="m -67.127193,16.389849 c 2.576371,5.218757 3.219991,10.437604 0.685567,15.656376 a 21.092493,20.112965 0 0 0 -5.957511,13.981003 21.092493,20.112965 0 0 0 21.09272,20.112733 21.092493,20.112965 0 0 0 21.092719,-20.112733 21.092493,20.112965 0 0 0 -5.826495,-13.875983 c -2.288524,-5.25379 -1.925212,-10.50762 0.554551,-15.761396 z" /><g
         id="g35166-0-7-7-0"
         transform="matrix(0.69360728,-0.68596458,0.63594549,0.70522632,-29.986968,-85.846997)"
         style="stroke-width:1.09837;stroke-dasharray:none"><ellipse
           style="opacity:1;fill:#ffffff;fill-opacity:1;stroke:#1c5a33;stroke-width:1.09837;stroke-linecap:round;stroke-linejoin:round;stroke-miterlimit:2;stroke-dasharray:none;stroke-opacity:1"
           id="path35006-2-5-7-1-3"
           cx="-109.44587"
           cy="70.39537"
           rx="11.427821"
           ry="8.4892378" /><ellipse
           style="opacity:1;fill:#057f1c;fill-opacity:1;stroke:#1c5a33;stroke-width:1.09837;stroke-linecap:round;stroke-linejoin:round;stroke-miterlimit:2;stroke-dasharray:none;stroke-opacity:1"
           id="path35006-2-0-3-6-9-1"
           cx="-107.68273"
           cy="68.566933"
           rx="8.7504454"
           ry="6.1383715" /></g><g
         id="g35166-8-9-1-9-3"
         transform="matrix(-0.69360728,-0.68596458,-0.63594549,0.70522632,-72.315402,-85.25928)"
         style="stroke-width:1.09837;stroke-dasharray:none"><ellipse
           style="opacity:1;fill:#ffffff;fill-opacity:1;stroke:#1c5a33;stroke-width:1.09837;stroke-linecap:round;stroke-linejoin:round;stroke-miterlimit:2;stroke-dasharray:none;stroke-opacity:1"
           id="path35006-2-4-5-4-4-9"
           cx="-109.44587"
           cy="70.39537"
           rx="11.427821"
           ry="8.4892378" /><ellipse
           style="opacity:1;fill:#057f1c;fill-opacity:1;stroke:#1c5a33;stroke-width:1.09837;stroke-linecap:round;stroke-linejoin:round;stroke-miterlimit:2;stroke-dasharray:none;stroke-opacity:1"
           id="path35006-2-0-0-4-5-2-2"
           cx="-107.68273"
           cy="68.566933"
           rx="8.7504454"
           ry="6.1383715" /></g></g></g></svg>
