<?xml version="1.0" encoding="UTF-8" standalone="no"?>
<!-- Created with Inkscape (http://www.inkscape.org/) -->

<svg
   width="104.99999"
   height="99.999992"
   viewBox="0 0 27.781246 26.458332"
   version="1.1"
   id="svg5"
   xml:space="preserve"
   xmlns="http://www.w3.org/2000/svg"
   xmlns:svg="http://www.w3.org/2000/svg"><defs
     id="defs2"><clipPath
       clipPathUnits="userSpaceOnUse"
       id="clipPath20295"><rect
         style="opacity:0.594315;fill:#000000;stroke:#53545d;stroke-width:0;stroke-miterlimit:2;stroke-dasharray:none"
         id="rect20297"
         width="45.568748"
         height="42.860161"
         x="16.883989"
         y="55.211887" /></clipPath></defs><g
     id="layer1"
     transform="translate(-55.562499,-343.95833)"><g
       id="g60778-6-9-5-88"
       transform="matrix(0.60965571,0,0,0.6173176,45.269078,309.87506)"
       style="opacity:1;stroke-width:1.07822;stroke-dasharray:none"
       clip-path="url(#clipPath20295)"><path
         id="path52676-7-0-9-73"
         style="opacity:1;fill:#0c55ce;fill-opacity:1;stroke:#0e1184;stroke-width:2.15644;stroke-linecap:round;stroke-linejoin:round;stroke-miterlimit:2;stroke-dasharray:none;stroke-opacity:1"
         d="m 23.393811,43.425342 c 2.571294,5.766251 3.270509,11.532665 0.929006,17.298931 -6.096171,2.108586 -12.192359,1.700472 -18.2885298,-1.440671 v 32.145122 c 6.0670038,-2.176687 12.3618418,-2.529581 18.9123878,-0.83795 1.357384,4.993905 1.093884,9.987886 -1.552864,14.981806 H 55.94292 c -2.966471,-6.421732 -2.741464,-12.843598 -0.0093,-19.265311 2.003795,-2.551474 5.440956,-5.405469 5.440956,-12.776849 0,-4.543365 -2.228501,-8.645008 -5.819848,-11.707856 -2.55267,-6.132402 -2.226264,-12.264835 0.388216,-18.397222 z" /><g
         id="g55532-0-1-2-3"
         style="stroke-width:1.07822;stroke-dasharray:none"><path
           style="opacity:1;fill:#ffffff;fill-opacity:1;stroke:#0e1184;stroke-width:1.07822;stroke-linecap:round;stroke-linejoin:round;stroke-dasharray:none;stroke-opacity:1"
           d="m 40.095328,64.583518 c 0,3.322676 0.03005,7.103408 0.0653,10.317691 0.05056,4.610708 5.184957,7.248504 8.946354,7.248504 4.953327,0 10.121783,-2.343218 10.121783,-11.493124 -5.18504,1.257922 -13.406918,0.293114 -19.133439,-6.073071 z"
           id="path55369-4-5-06-78" /><path
           id="path55369-2-0-7-1-37-7"
           style="opacity:1;fill:#011ab7;fill-opacity:1;stroke:#0e1184;stroke-width:1.07822;stroke-linecap:round;stroke-linejoin:round;stroke-dasharray:none;stroke-opacity:1"
           d="m 43.277362,67.438842 v 5.67718 0.26148 h 0.0098 a 5.2894492,5.2894492 0 0 0 5.279781,5.02812 5.2894492,5.2894492 0 0 0 5.279264,-5.02812 h 0.0098 v -0.26148 -1.97456 c -3.420022,-0.2039 -7.212038,-1.28525 -10.578682,-3.70262 z" /></g><g
         id="g55532-4-9-5-9-9"
         transform="matrix(-1,0,0,1,79.178477,0)"
         style="opacity:1;stroke-width:1.07822;stroke-dasharray:none"><path
           style="opacity:1;fill:#ffffff;fill-opacity:1;stroke:#0e1184;stroke-width:1.07822;stroke-linecap:round;stroke-linejoin:round;stroke-dasharray:none;stroke-opacity:1"
           d="m 40.095328,64.583518 c 0,3.322676 0.03005,7.103408 0.0653,10.317691 0.05056,4.610708 5.184957,7.248504 8.946354,7.248504 4.953327,0 10.121783,-2.343218 10.121783,-11.493124 -5.18504,1.257922 -13.406918,0.293114 -19.133439,-6.073071 z"
           id="path55369-9-6-9-2-4" /><path
           id="path55369-2-0-0-2-9-22-2"
           style="opacity:1;fill:#011ab7;fill-opacity:1;stroke:#0e1184;stroke-width:1.07822;stroke-linecap:round;stroke-linejoin:round;stroke-dasharray:none;stroke-opacity:1"
           d="m 43.277362,67.438842 v 5.67718 0.26148 h 0.0098 a 5.2894492,5.2894492 0 0 0 5.279781,5.02812 5.2894492,5.2894492 0 0 0 5.279264,-5.02812 h 0.0098 v -0.26148 -1.97456 c -3.420022,-0.2039 -7.212038,-1.28525 -10.578682,-3.70262 z" /></g></g></g></svg>
