<?xml version="1.0" encoding="UTF-8" standalone="no"?>
<!-- Created with Inkscape (http://www.inkscape.org/) -->

<svg
   width="104.99999"
   height="99.999985"
   viewBox="0 0 27.781246 26.458329"
   version="1.1"
   id="svg5"
   xml:space="preserve"
   xmlns="http://www.w3.org/2000/svg"
   xmlns:svg="http://www.w3.org/2000/svg"><defs
     id="defs2"><clipPath
       clipPathUnits="userSpaceOnUse"
       id="clipPath35945"><rect
         style="opacity:0.594315;fill:#000000;stroke:#53545d;stroke-width:0;stroke-miterlimit:2;stroke-dasharray:none"
         id="rect35947"
         width="46.525181"
         height="42.704208"
         x="-28.341013"
         y="214.64958"
         transform="rotate(-21.469327)" /></clipPath></defs><g
     id="layer1"
     transform="translate(-111.125,-52.916668)"><g
       id="g67942-8-8-6"
       transform="matrix(0.55569064,0.22676789,-0.2185488,0.57658883,128.04807,-80.076052)"
       style="opacity:1;stroke-width:1.08748;stroke-dasharray:none"
       clip-path="url(#clipPath35945)"><path
         id="path63689-5-1-3"
         style="opacity:1;fill:#9a37d4;fill-opacity:1;stroke:#4b117e;stroke-width:2.17498;stroke-linecap:round;stroke-linejoin:round;stroke-miterlimit:2;stroke-dasharray:none;stroke-opacity:1"
         d="m 71.149834,203.54861 a 22.539484,19.850119 0 0 0 -12.493254,17.76917 22.539484,19.850119 0 0 0 22.540073,19.85047 22.539484,19.850119 0 0 0 20.066927,-10.81528 c 4.67743,-4.13884 9.5968,-7.2258 16.45377,-7.36673 l -12.88446,-28.65829 c -4.880767,5.78588 -10.251347,8.83608 -17.79107,7.83054 -0.0017,-2.2e-4 -0.0033,-5.1e-4 -0.0049,-7.4e-4 a 22.539484,19.850119 0 0 0 -5.840506,-0.69012 22.539484,19.850119 0 0 0 -10.046539,2.08098 z"
         transform="matrix(0.99999787,0.00206485,0.00205573,0.99999789,0,0)" /><g
         id="g63741-0-3-8"
         style="opacity:1;stroke-width:1.08748;stroke-dasharray:none"
         transform="rotate(-3.2186946,92.533883,225.74625)"><path
           style="opacity:1;fill:#ffffff;fill-opacity:1;stroke:#4b117e;stroke-width:1.08748;stroke-linecap:butt;stroke-linejoin:miter;stroke-dasharray:none;stroke-opacity:1"
           d="m 85.470615,220.3027 h 15.145525 c 0.75561,0 1.93937,0.72201 1.93937,1.80084 0,5.36757 -4.690518,9.09655 -9.927714,9.09655 -7.097862,0 -10.229256,-3.70856 -10.112405,-8.63479 0.03927,-1.65563 1.714583,-2.2626 2.955224,-2.2626 z"
           id="path63695-4-8-4" /><path
           id="path63695-1-6-1-3"
           style="opacity:1;fill:#591ca3;fill-opacity:1;stroke:#4b117e;stroke-width:1.08748;stroke-linecap:butt;stroke-linejoin:miter;stroke-dasharray:none;stroke-opacity:1"
           d="m 85.686578,220.29241 a 6.1182365,6.1182365 0 0 0 -0.376205,2.10065 6.1182365,6.1182365 0 0 0 6.11849,6.11849 6.1182365,6.1182365 0 0 0 6.117973,-6.11849 6.1182365,6.1182365 0 0 0 -0.37259,-2.10065 z" /></g><g
         id="g63741-7-0-4-9"
         style="opacity:1;stroke-width:1.08748;stroke-dasharray:none"
         transform="matrix(-0.9984225,-0.05614728,-0.05614728,0.9984225,176.64623,5.2251315)"><path
           style="opacity:1;fill:#ffffff;fill-opacity:1;stroke:#4b117e;stroke-width:1.08748;stroke-linecap:butt;stroke-linejoin:miter;stroke-dasharray:none;stroke-opacity:1"
           d="m 85.470615,220.3027 h 15.145525 c 0.75561,0 1.93937,0.72201 1.93937,1.80084 0,5.36757 -4.690518,9.09655 -9.927714,9.09655 -7.097862,0 -10.229256,-3.70856 -10.112405,-8.63479 0.03927,-1.65563 1.714583,-2.2626 2.955224,-2.2626 z"
           id="path63695-2-8-9-8" /><path
           id="path63695-1-8-7-9-4"
           style="opacity:1;fill:#591ca3;fill-opacity:1;stroke:#4b117e;stroke-width:1.08748;stroke-linecap:butt;stroke-linejoin:miter;stroke-dasharray:none;stroke-opacity:1"
           d="m 85.686578,220.29241 a 6.1182365,6.1182365 0 0 0 -0.376205,2.10065 6.1182365,6.1182365 0 0 0 6.11849,6.11849 6.1182365,6.1182365 0 0 0 6.117973,-6.11849 6.1182365,6.1182365 0 0 0 -0.37259,-2.10065 z" /></g></g></g></svg>
