<?xml version="1.0" encoding="UTF-8" standalone="no"?>
<!-- Created with Inkscape (http://www.inkscape.org/) -->

<svg
   width="104.99999"
   height="100"
   viewBox="0 0 27.781246 26.458334"
   version="1.1"
   id="svg5"
   xml:space="preserve"
   xmlns="http://www.w3.org/2000/svg"
   xmlns:svg="http://www.w3.org/2000/svg"><defs
     id="defs2"><clipPath
       clipPathUnits="userSpaceOnUse"
       id="clipPath7449-0"><rect
         style="opacity:0.594315;fill:#000000;stroke:#53545d;stroke-width:0;stroke-miterlimit:2;stroke-dasharray:none"
         id="rect7451-4"
         width="44.298168"
         height="42.339111"
         x="-73.455498"
         y="24.8577" /></clipPath></defs><g
     id="layer1"
     transform="translate(-4.2061554e-7,-343.95832)"><g
       id="g35933-2-59"
       transform="matrix(0.62714212,0,0,0.62491467,46.067037,328.42438)"
       style="stroke-width:1.05659;stroke-dasharray:none"
       clip-path="url(#clipPath7449-0)"><path
         id="path35006-4-98"
         style="opacity:1;fill:#2bc224;fill-opacity:1;stroke:#1c5a33;stroke-width:2.11319;stroke-linecap:round;stroke-linejoin:round;stroke-miterlimit:2;stroke-dasharray:none;stroke-opacity:1"
         d="m -67.127187,16.389865 c 2.437293,4.937039 3.145173,9.874195 1.068726,14.811247 -5.629844,2.489528 -11.259657,2.224269 -16.889502,-1.051035 v 31.754335 c 5.411108,-2.191979 11.029988,-2.510455 16.881262,-0.726877 1.796401,4.829024 1.772956,9.65806 -1.060486,14.487088 h 31.641551 c -2.70208,-5.283566 -2.679632,-10.56714 -0.481215,-15.850705 a 21.092493,20.112965 0 0 0 5.753159,-13.786674 21.092493,20.112965 0 0 0 -5.826495,-13.875983 c -2.288524,-5.25379 -1.925212,-10.50762 0.554551,-15.761396 z" /><g
         id="g35166-0-55"
         transform="matrix(0.69360728,-0.68596458,0.63594549,0.70522632,-29.986968,-85.846997)"
         style="stroke-width:1.09837;stroke-dasharray:none"><ellipse
           style="opacity:1;fill:#ffffff;fill-opacity:1;stroke:#1c5a33;stroke-width:1.09837;stroke-linecap:round;stroke-linejoin:round;stroke-miterlimit:2;stroke-dasharray:none;stroke-opacity:1"
           id="path35006-2-5-83"
           cx="-109.44587"
           cy="70.39537"
           rx="11.427821"
           ry="8.4892378" /><ellipse
           style="opacity:1;fill:#057f1c;fill-opacity:1;stroke:#1c5a33;stroke-width:1.09837;stroke-linecap:round;stroke-linejoin:round;stroke-miterlimit:2;stroke-dasharray:none;stroke-opacity:1"
           id="path35006-2-0-3-3"
           cx="-107.68273"
           cy="68.566933"
           rx="8.7504454"
           ry="6.1383715" /></g><g
         id="g35166-8-9-5"
         transform="matrix(-0.69360728,-0.68596458,-0.63594549,0.70522632,-72.315402,-85.25928)"
         style="stroke-width:1.09837;stroke-dasharray:none"><ellipse
           style="opacity:1;fill:#ffffff;fill-opacity:1;stroke:#1c5a33;stroke-width:1.09837;stroke-linecap:round;stroke-linejoin:round;stroke-miterlimit:2;stroke-dasharray:none;stroke-opacity:1"
           id="path35006-2-4-5-61"
           cx="-109.44587"
           cy="70.39537"
           rx="11.427821"
           ry="8.4892378" /><ellipse
           style="opacity:1;fill:#057f1c;fill-opacity:1;stroke:#1c5a33;stroke-width:1.09837;stroke-linecap:round;stroke-linejoin:round;stroke-miterlimit:2;stroke-dasharray:none;stroke-opacity:1"
           id="path35006-2-0-0-4-86"
           cx="-107.68273"
           cy="68.566933"
           rx="8.7504454"
           ry="6.1383715" /></g></g></g></svg>
