<?xml version="1.0" encoding="UTF-8" standalone="no"?>
<!-- Created with Inkscape (http://www.inkscape.org/) -->

<svg
   width="105"
   height="99.999977"
   viewBox="0 0 27.781248 26.458327"
   version="1.1"
   id="svg5"
   xml:space="preserve"
   xmlns="http://www.w3.org/2000/svg"
   xmlns:svg="http://www.w3.org/2000/svg"><defs
     id="defs2"><clipPath
       clipPathUnits="userSpaceOnUse"
       id="clipPath6129"><rect
         style="opacity:0.594315;fill:#000000;stroke:#53545d;stroke-width:0;stroke-miterlimit:2;stroke-dasharray:none"
         id="rect6131"
         width="44.298168"
         height="42.339111"
         x="-73.455498"
         y="24.85771" /></clipPath></defs><g
     id="layer1"
     transform="translate(-7.4784065e-7,-238.125)"><g
       id="g35933-2-4"
       transform="matrix(0.62714217,0,0,0.62492143,46.067041,222.59075)"
       style="opacity:1;stroke-width:1.05658;stroke-dasharray:none"
       clip-path="url(#clipPath6129)"><path
         id="path35006-4-73"
         style="opacity:1;fill:#2bc224;fill-opacity:1;stroke:#1c5a33;stroke-width:2.11318;stroke-linecap:round;stroke-linejoin:round;stroke-miterlimit:2;stroke-dasharray:none;stroke-opacity:1"
         d="m -51.306411,25.914509 a 21.092493,20.112965 0 0 0 -13.502044,4.688726 c -6.046494,3.110615 -12.093014,3.064555 -18.139508,-0.453161 v 31.754335 c 5.89764,-2.389068 12.041725,-2.553473 18.464988,-0.195157 a 21.092493,20.112965 0 0 0 13.176564,4.430722 21.092493,20.112965 0 0 0 13.198811,-4.448915 c 5.891167,-2.244429 12.027878,-2.272182 18.44274,0.21335 V 30.150074 c -5.995173,3.375494 -11.990247,3.658824 -17.98542,0.549085 a 21.092493,20.112965 0 0 0 -13.656131,-4.78465 z" /><g
         id="g35166-0-11"
         transform="matrix(0.69360728,-0.68596458,0.63594549,0.70522632,-29.986968,-85.846997)"
         style="stroke-width:1.09836;stroke-dasharray:none"><ellipse
           style="opacity:1;fill:#ffffff;fill-opacity:1;stroke:#1c5a33;stroke-width:1.09836;stroke-linecap:round;stroke-linejoin:round;stroke-miterlimit:2;stroke-dasharray:none;stroke-opacity:1"
           id="path35006-2-5-88"
           cx="-109.44587"
           cy="70.39537"
           rx="11.427821"
           ry="8.4892378" /><ellipse
           style="opacity:1;fill:#057f1c;fill-opacity:1;stroke:#1c5a33;stroke-width:1.09836;stroke-linecap:round;stroke-linejoin:round;stroke-miterlimit:2;stroke-dasharray:none;stroke-opacity:1"
           id="path35006-2-0-3-4"
           cx="-107.68273"
           cy="68.566933"
           rx="8.7504454"
           ry="6.1383715" /></g><g
         id="g35166-8-9-75"
         transform="matrix(-0.69360728,-0.68596458,-0.63594549,0.70522632,-72.315402,-85.25928)"
         style="stroke-width:1.09836;stroke-dasharray:none"><ellipse
           style="opacity:1;fill:#ffffff;fill-opacity:1;stroke:#1c5a33;stroke-width:1.09836;stroke-linecap:round;stroke-linejoin:round;stroke-miterlimit:2;stroke-dasharray:none;stroke-opacity:1"
           id="path35006-2-4-5-37"
           cx="-109.44587"
           cy="70.39537"
           rx="11.427821"
           ry="8.4892378" /><ellipse
           style="opacity:1;fill:#057f1c;fill-opacity:1;stroke:#1c5a33;stroke-width:1.09836;stroke-linecap:round;stroke-linejoin:round;stroke-miterlimit:2;stroke-dasharray:none;stroke-opacity:1"
           id="path35006-2-0-0-4-9"
           cx="-107.68273"
           cy="68.566933"
           rx="8.7504454"
           ry="6.1383715" /></g></g></g></svg>
