<?xml version="1.0" encoding="UTF-8" standalone="no"?>
<!-- Created with Inkscape (http://www.inkscape.org/) -->

<svg
   width="105"
   height="99.999985"
   viewBox="0 0 27.781248 26.458329"
   version="1.1"
   id="svg5"
   xml:space="preserve"
   xmlns="http://www.w3.org/2000/svg"
   xmlns:svg="http://www.w3.org/2000/svg"><defs
     id="defs2"><clipPath
       clipPathUnits="userSpaceOnUse"
       id="clipPath5993"><rect
         style="opacity:0.379845;fill:#000000;stroke:#53545d;stroke-width:0;stroke-miterlimit:2;stroke-dasharray:none"
         id="rect5995"
         width="44.298168"
         height="42.339111"
         x="-73.455498"
         y="24.857685" /></clipPath></defs><g
     id="layer1"
     transform="translate(2.5215935e-7,-211.66667)"><g
       id="g35933-2-01"
       transform="matrix(0.62714217,0,0,0.62491807,46.06704,196.13251)"
       style="opacity:1;stroke-width:1.05659;stroke-dasharray:none"
       clip-path="url(#clipPath5993)"><path
         id="path35006-4-22"
         style="opacity:1;fill:#2bc224;fill-opacity:1;stroke:#1c5a33;stroke-width:2.11318;stroke-linecap:round;stroke-linejoin:round;stroke-miterlimit:2;stroke-dasharray:none;stroke-opacity:1"
         d="m -51.306411,25.914509 a 21.092493,20.112965 0 0 0 -21.09272,20.112732 21.092493,20.112965 0 0 0 5.796007,13.827194 c 2.314588,5.27004 2.568151,10.540132 -0.524063,15.810185 h 31.641551 c -2.478222,-4.845842 -2.663454,-9.691699 -0.981382,-14.537531 5.387926,-1.662651 10.980394,-1.478408 16.802158,0.77732 V 30.150074 c -5.995173,3.37551 -11.990247,3.658826 -17.98542,0.549085 a 21.092493,20.112965 0 0 0 -13.656131,-4.78465 z" /><g
         id="g35166-0-2"
         transform="matrix(0.69360728,-0.68596458,0.63594549,0.70522632,-29.986968,-85.846997)"
         style="stroke-width:1.09837;stroke-dasharray:none"><ellipse
           style="opacity:1;fill:#ffffff;fill-opacity:1;stroke:#1c5a33;stroke-width:1.09837;stroke-linecap:round;stroke-linejoin:round;stroke-miterlimit:2;stroke-dasharray:none;stroke-opacity:1"
           id="path35006-2-5-91"
           cx="-109.44587"
           cy="70.39537"
           rx="11.427821"
           ry="8.4892378" /><ellipse
           style="opacity:1;fill:#057f1c;fill-opacity:1;stroke:#1c5a33;stroke-width:1.09837;stroke-linecap:round;stroke-linejoin:round;stroke-miterlimit:2;stroke-dasharray:none;stroke-opacity:1"
           id="path35006-2-0-3-145"
           cx="-107.68273"
           cy="68.566933"
           rx="8.7504454"
           ry="6.1383715" /></g><g
         id="g35166-8-9-34"
         transform="matrix(-0.69360728,-0.68596458,-0.63594549,0.70522632,-72.315402,-85.25928)"
         style="stroke-width:1.09837;stroke-dasharray:none"><ellipse
           style="opacity:1;fill:#ffffff;fill-opacity:1;stroke:#1c5a33;stroke-width:1.09837;stroke-linecap:round;stroke-linejoin:round;stroke-miterlimit:2;stroke-dasharray:none;stroke-opacity:1"
           id="path35006-2-4-5-34"
           cx="-109.44587"
           cy="70.39537"
           rx="11.427821"
           ry="8.4892378" /><ellipse
           style="opacity:1;fill:#057f1c;fill-opacity:1;stroke:#1c5a33;stroke-width:1.09837;stroke-linecap:round;stroke-linejoin:round;stroke-miterlimit:2;stroke-dasharray:none;stroke-opacity:1"
           id="path35006-2-0-0-4-31"
           cx="-107.68273"
           cy="68.566933"
           rx="8.7504454"
           ry="6.1383715" /></g></g></g></svg>
