<?xml version="1.0" encoding="UTF-8" standalone="no"?>
<!-- Created with Inkscape (http://www.inkscape.org/) -->

<svg
   width="104.99999"
   height="100"
   viewBox="0 0 27.781246 26.458334"
   version="1.1"
   id="svg5"
   xml:space="preserve"
   xmlns="http://www.w3.org/2000/svg"
   xmlns:svg="http://www.w3.org/2000/svg"><defs
     id="defs2"><clipPath
       clipPathUnits="userSpaceOnUse"
       id="clipPath6802"><rect
         style="opacity:0.594315;fill:#000000;stroke:#53545d;stroke-width:0;stroke-miterlimit:2;stroke-dasharray:none"
         id="rect6804"
         width="44.298168"
         height="42.339111"
         x="-73.455498"
         y="24.8577" /></clipPath></defs><g
     id="layer1"
     transform="translate(-4.2061554e-7,-291.04166)"><g
       id="g35933-2-61"
       transform="matrix(0.62714212,0,0,0.62491467,46.067037,275.50772)"
       style="opacity:1;stroke-width:1.05659;stroke-dasharray:none"
       clip-path="url(#clipPath6802)"><path
         id="path35006-4-65"
         style="opacity:1;fill:#2bc224;fill-opacity:1;stroke:#1c5a33;stroke-width:2.11319;stroke-linecap:round;stroke-linejoin:round;stroke-miterlimit:2;stroke-dasharray:none;stroke-opacity:1"
         d="m -67.127186,16.389865 c 2.57637,5.218757 3.219991,10.437604 0.685567,15.656376 a 21.092493,20.112965 0 0 0 -5.957511,13.981003 21.092493,20.112965 0 0 0 5.796007,13.827194 c 2.314588,5.27004 2.568151,10.540132 -0.524063,15.810185 h 31.641551 c -2.478222,-4.845842 -2.663454,-9.691699 -0.981382,-14.537531 5.387926,-1.662651 10.980393,-1.478409 16.802158,0.77732 V 30.150077 c -5.573823,3.138273 -11.147584,3.603451 -16.721406,1.154402 -1.897322,-4.971566 -1.445925,-9.943061 0.90063,-14.914614 z" /><g
         id="g35166-0-944"
         transform="matrix(0.69360728,-0.68596458,0.63594549,0.70522632,-29.986968,-85.846997)"
         style="stroke-width:1.09837;stroke-dasharray:none"><ellipse
           style="opacity:1;fill:#ffffff;fill-opacity:1;stroke:#1c5a33;stroke-width:1.09837;stroke-linecap:round;stroke-linejoin:round;stroke-miterlimit:2;stroke-dasharray:none;stroke-opacity:1"
           id="path35006-2-5-71"
           cx="-109.44587"
           cy="70.39537"
           rx="11.427821"
           ry="8.4892378" /><ellipse
           style="opacity:1;fill:#057f1c;fill-opacity:1;stroke:#1c5a33;stroke-width:1.09837;stroke-linecap:round;stroke-linejoin:round;stroke-miterlimit:2;stroke-dasharray:none;stroke-opacity:1"
           id="path35006-2-0-3-9"
           cx="-107.68273"
           cy="68.566933"
           rx="8.7504454"
           ry="6.1383715" /></g><g
         id="g35166-8-9-27"
         transform="matrix(-0.69360728,-0.68596458,-0.63594549,0.70522632,-72.315402,-85.25928)"
         style="stroke-width:1.09837;stroke-dasharray:none"><ellipse
           style="opacity:1;fill:#ffffff;fill-opacity:1;stroke:#1c5a33;stroke-width:1.09837;stroke-linecap:round;stroke-linejoin:round;stroke-miterlimit:2;stroke-dasharray:none;stroke-opacity:1"
           id="path35006-2-4-5-9"
           cx="-109.44587"
           cy="70.39537"
           rx="11.427821"
           ry="8.4892378" /><ellipse
           style="opacity:1;fill:#057f1c;fill-opacity:1;stroke:#1c5a33;stroke-width:1.09837;stroke-linecap:round;stroke-linejoin:round;stroke-miterlimit:2;stroke-dasharray:none;stroke-opacity:1"
           id="path35006-2-0-0-4-29"
           cx="-107.68273"
           cy="68.566933"
           rx="8.7504454"
           ry="6.1383715" /></g></g></g></svg>
