<?xml version="1.0" encoding="UTF-8" standalone="no"?>
<!-- Created with Inkscape (http://www.inkscape.org/) -->

<svg
   width="104.99998"
   height="100"
   viewBox="0 0 27.781242 26.458334"
   version="1.1"
   id="svg5"
   xml:space="preserve"
   xmlns="http://www.w3.org/2000/svg"
   xmlns:svg="http://www.w3.org/2000/svg"><defs
     id="defs2"><clipPath
       clipPathUnits="userSpaceOnUse"
       id="clipPath12177"><rect
         style="opacity:0.594315;fill:#000000;stroke:#53545d;stroke-width:0;stroke-miterlimit:2;stroke-dasharray:none"
         id="rect12179"
         width="46.574051"
         height="42.417076"
         x="61.224762"
         y="14.619746" /></clipPath></defs><g
     id="layer1"
     transform="translate(-27.781253,-158.74999)"><g
       id="g51862-6-7-9-7"
       transform="matrix(0.59650284,0,0,0.62376607,-8.7396451,149.63069)"
       style="opacity:1;stroke-width:1.08439;stroke-dasharray:none"
       clip-path="url(#clipPath12177)"><path
         id="path40975-7-1-2-4"
         style="opacity:1;fill:#dd1d16;fill-opacity:1;stroke:#820303;stroke-width:2.16878;stroke-linecap:round;stroke-linejoin:round;stroke-miterlimit:2;stroke-dasharray:none;stroke-opacity:1"
         d="m 67.878197,6.1363184 c 2.708735,5.2283666 3.385422,10.4568236 0.720789,15.6852046 a 22.202625,20.12417 0 0 0 -6.289577,14.006749 22.202625,20.12417 0 0 0 6.119775,13.852654 c 2.433503,5.279745 2.700094,10.559541 -0.550987,15.839299 H 101.14538 C 98.304474,60.226929 98.328075,54.933614 100.63944,49.640332 a 22.202625,20.12417 0 0 0 6.07472,-13.81206 22.202625,20.12417 0 0 0 -6.15182,-13.902363 C 98.156589,16.662678 98.538328,11.399535 101.14538,6.1363184 Z" /><g
         id="g42353-0-1-4-7"
         transform="translate(0.58771655)"
         style="stroke-width:1.08439;stroke-dasharray:none"><path
           id="path42279-0-5-3-4"
           style="opacity:1;fill:#ffffff;fill-opacity:1;stroke:#820303;stroke-width:1.08439;stroke-linecap:round;stroke-linejoin:round;stroke-miterlimit:2;stroke-dasharray:none;stroke-opacity:1"
           d="m 102.39065,28.560014 a 17.990656,10.6442 0 0 1 -17.139006,7.421252 17.990656,10.6442 0 0 1 -0.796851,-0.01395 9.9911814,11.427822 0 0 0 9.971485,10.91923 9.9911814,11.427822 0 0 0 9.991122,-11.427726 9.9911814,11.427822 0 0 0 -2.02675,-6.898804 z" /><path
           id="path42279-5-7-5-9-4"
           style="opacity:1;fill:#8f0808;fill-opacity:1;stroke:#820303;stroke-width:1.08439;stroke-linecap:round;stroke-linejoin:round;stroke-miterlimit:2;stroke-dasharray:none;stroke-opacity:1"
           d="m 97.298092,33.323472 a 17.990656,10.6442 0 0 1 -10.263973,2.599841 6.105722,6.4322305 0 0 0 -0.257865,1.842265 6.105722,6.4322305 0 0 0 6.106087,6.432165 6.105722,6.4322305 0 0 0 6.10557,-6.432165 6.105722,6.4322305 0 0 0 -1.689819,-4.442106 z" /><path
           style="fill:#820303;fill-opacity:1;stroke:#820303;stroke-width:1.08439;stroke-linecap:butt;stroke-linejoin:miter;stroke-dasharray:none;stroke-opacity:1"
           d="m 84.990344,35.360946 c 0.782291,-1.073393 1.721722,-2.115358 2.938581,-3.101838"
           id="path42348-5-4-4-9" /></g><g
         id="g42353-7-5-8-5-4"
         transform="matrix(-1,0,0,1,168.29247,0.08647248)"
         style="stroke-width:1.08439;stroke-dasharray:none"><path
           id="path42279-7-8-5-3-1"
           style="opacity:1;fill:#ffffff;fill-opacity:1;stroke:#820303;stroke-width:1.08439;stroke-linecap:round;stroke-linejoin:round;stroke-miterlimit:2;stroke-dasharray:none;stroke-opacity:1"
           d="m 102.39065,28.47354 a 17.990656,10.6442 0 0 1 -17.139006,7.421252 17.990656,10.6442 0 0 1 -0.796851,-0.01395 9.9911814,11.427822 0 0 0 9.971485,10.91923 9.9911814,11.427822 0 0 0 9.991122,-11.427726 9.9911814,11.427822 0 0 0 -2.02675,-6.898804 z" /><path
           id="path42279-5-1-2-9-6-60"
           style="opacity:1;fill:#8f0808;fill-opacity:1;stroke:#820303;stroke-width:1.08439;stroke-linecap:round;stroke-linejoin:round;stroke-miterlimit:2;stroke-dasharray:none;stroke-opacity:1"
           d="m 97.298092,33.323472 a 17.990656,10.6442 0 0 1 -10.263973,2.599841 6.105722,6.4322305 0 0 0 -0.257865,1.842265 6.105722,6.4322305 0 0 0 6.106087,6.432165 6.105722,6.4322305 0 0 0 6.10557,-6.432165 6.105722,6.4322305 0 0 0 -1.689819,-4.442106 z" /><path
           style="fill:#820303;fill-opacity:1;stroke:#820303;stroke-width:1.08439;stroke-linecap:butt;stroke-linejoin:miter;stroke-dasharray:none;stroke-opacity:1"
           d="m 84.990344,35.360946 c 0.782291,-1.073393 1.721722,-2.115358 2.938581,-3.101838"
           id="path42348-7-9-0-6-31" /></g></g></g></svg>
