<?xml version="1.0" encoding="UTF-8" standalone="no"?>
<!-- Created with Inkscape (http://www.inkscape.org/) -->

<svg
   width="104.99999"
   height="100"
   viewBox="0 0 27.781246 26.458334"
   version="1.1"
   id="svg5"
   xml:space="preserve"
   xmlns="http://www.w3.org/2000/svg"
   xmlns:svg="http://www.w3.org/2000/svg"><defs
     id="defs2"><clipPath
       clipPathUnits="userSpaceOnUse"
       id="clipPath6452"><rect
         style="opacity:0.594315;fill:#000000;stroke:#53545d;stroke-width:0;stroke-miterlimit:2;stroke-dasharray:none"
         id="rect6454"
         width="46.574051"
         height="42.417076"
         x="61.224766"
         y="14.61972" /></clipPath></defs><g
     id="layer1"
     transform="translate(-27.781249,-343.95833)"><g
       id="g51862-6-7-9-45"
       transform="matrix(0.59649953,0,0,0.62376607,-8.7392946,334.83904)"
       style="opacity:1;stroke-width:1.0844;stroke-dasharray:none"
       clip-path="url(#clipPath6452)"><path
         id="path40975-7-1-2-79"
         style="opacity:1;fill:#dd1d16;fill-opacity:1;stroke:#820303;stroke-width:2.16878;stroke-linecap:round;stroke-linejoin:round;stroke-miterlimit:2;stroke-dasharray:none;stroke-opacity:1"
         d="m 67.878201,6.1363039 c 2.562512,4.9461301 3.306761,9.8923771 1.123633,14.8385201 -5.919085,2.494113 -11.838138,2.228365 -17.757224,-1.05297 v 31.812807 c 5.689111,-2.196015 11.596669,-2.515077 17.748561,-0.728215 1.888694,4.837909 1.864043,9.675844 -1.11497,14.513764 H 101.14538 C 98.304479,60.226914 98.32808,54.9336 100.63944,49.640317 a 22.202625,20.12417 0 0 0 6.07473,-13.81206 22.202625,20.12417 0 0 0 -6.15183,-13.902362 C 98.156593,16.662663 98.538332,11.399521 101.14538,6.1363039 Z" /><g
         id="g42353-0-1-4-046"
         transform="translate(0.58771655)"
         style="stroke-width:1.0844;stroke-dasharray:none"><path
           id="path42279-0-5-3-8"
           style="opacity:1;fill:#ffffff;fill-opacity:1;stroke:#820303;stroke-width:1.0844;stroke-linecap:round;stroke-linejoin:round;stroke-miterlimit:2;stroke-dasharray:none;stroke-opacity:1"
           d="m 102.39065,28.560014 a 17.990656,10.6442 0 0 1 -17.139006,7.421252 17.990656,10.6442 0 0 1 -0.796851,-0.01395 9.9911814,11.427822 0 0 0 9.971485,10.91923 9.9911814,11.427822 0 0 0 9.991122,-11.427726 9.9911814,11.427822 0 0 0 -2.02675,-6.898804 z" /><path
           id="path42279-5-7-5-9-52"
           style="opacity:1;fill:#8f0808;fill-opacity:1;stroke:#820303;stroke-width:1.0844;stroke-linecap:round;stroke-linejoin:round;stroke-miterlimit:2;stroke-dasharray:none;stroke-opacity:1"
           d="m 97.298092,33.323472 a 17.990656,10.6442 0 0 1 -10.263973,2.599841 6.105722,6.4322305 0 0 0 -0.257865,1.842265 6.105722,6.4322305 0 0 0 6.106087,6.432165 6.105722,6.4322305 0 0 0 6.10557,-6.432165 6.105722,6.4322305 0 0 0 -1.689819,-4.442106 z" /><path
           style="fill:#820303;fill-opacity:1;stroke:#820303;stroke-width:1.0844;stroke-linecap:butt;stroke-linejoin:miter;stroke-dasharray:none;stroke-opacity:1"
           d="m 84.990344,35.360946 c 0.782291,-1.073393 1.721722,-2.115358 2.938581,-3.101838"
           id="path42348-5-4-4-13" /></g><g
         id="g42353-7-5-8-5-96"
         transform="matrix(-1,0,0,1,168.29247,0.08647248)"
         style="stroke-width:1.0844;stroke-dasharray:none"><path
           id="path42279-7-8-5-3-6"
           style="opacity:1;fill:#ffffff;fill-opacity:1;stroke:#820303;stroke-width:1.0844;stroke-linecap:round;stroke-linejoin:round;stroke-miterlimit:2;stroke-dasharray:none;stroke-opacity:1"
           d="m 102.39065,28.47354 a 17.990656,10.6442 0 0 1 -17.139006,7.421252 17.990656,10.6442 0 0 1 -0.796851,-0.01395 9.9911814,11.427822 0 0 0 9.971485,10.91923 9.9911814,11.427822 0 0 0 9.991122,-11.427726 9.9911814,11.427822 0 0 0 -2.02675,-6.898804 z" /><path
           id="path42279-5-1-2-9-6-21"
           style="opacity:1;fill:#8f0808;fill-opacity:1;stroke:#820303;stroke-width:1.0844;stroke-linecap:round;stroke-linejoin:round;stroke-miterlimit:2;stroke-dasharray:none;stroke-opacity:1"
           d="m 97.298092,33.323472 a 17.990656,10.6442 0 0 1 -10.263973,2.599841 6.105722,6.4322305 0 0 0 -0.257865,1.842265 6.105722,6.4322305 0 0 0 6.106087,6.432165 6.105722,6.4322305 0 0 0 6.10557,-6.432165 6.105722,6.4322305 0 0 0 -1.689819,-4.442106 z" /><path
           style="fill:#820303;fill-opacity:1;stroke:#820303;stroke-width:1.0844;stroke-linecap:butt;stroke-linejoin:miter;stroke-dasharray:none;stroke-opacity:1"
           d="m 84.990344,35.360946 c 0.782291,-1.073393 1.721722,-2.115358 2.938581,-3.101838"
           id="path42348-7-9-0-6-06" /></g></g></g></svg>
