<?xml version="1.0" encoding="UTF-8" standalone="no"?>
<!-- Created with Inkscape (http://www.inkscape.org/) -->

<svg
   width="104.99999"
   height="99.999992"
   viewBox="0 0 27.781246 26.458332"
   version="1.1"
   id="svg5"
   xml:space="preserve"
   xmlns="http://www.w3.org/2000/svg"
   xmlns:svg="http://www.w3.org/2000/svg"><defs
     id="defs2"><clipPath
       clipPathUnits="userSpaceOnUse"
       id="clipPath30815"><rect
         style="opacity:0.594315;fill:#000000;stroke:#53545d;stroke-width:0;stroke-miterlimit:2;stroke-dasharray:none"
         id="rect30817"
         width="44.727211"
         height="43.426468"
         x="151.60069"
         y="54.556412" /></clipPath></defs><g
     id="layer1"
     transform="translate(-83.343748,-264.58333)"><g
       id="g61273-20-34"
       style="opacity:1;fill:#fa9c0e;fill-opacity:1;stroke:#872f02;stroke-width:1.07525;stroke-dasharray:none;stroke-opacity:1"
       transform="matrix(0.62112631,0,0,0.60927166,-10.819431,231.34347)"
       clip-path="url(#clipPath30815)"><path
         id="path60915-32-548"
         style="opacity:1;fill:#fa9c0e;fill-opacity:1;stroke:#872f02;stroke-width:2.15048;stroke-linecap:round;stroke-linejoin:round;stroke-miterlimit:2;stroke-dasharray:none;stroke-opacity:1"
         d="m 171.68218,55.631897 c -0.60482,1.825968 -1.72237,3.733021 -3.14654,5.469869 -9.84116,4.349627 -25.71386,4.556399 -36.10375,-1.117044 l 3.77802,35.298426 c 9.1972,-3.087018 15.01289,-3.833745 23.31539,-2.039857 2.8278,6.537099 1.38019,13.468629 -1.535,20.155989 h 31.94801 c -2.68561,-7.0683 -4.93728,-14.409868 -1.11568,-21.26964 3.96487,-3.053956 6.43046,-7.317455 6.43036,-12.037275 -1e-4,-5.347423 -3.48232,-9.963705 -8.67505,-13.54363 -3.94654,-2.720792 -9.2695,-7.130806 -14.89576,-10.916838 z" /><g
         id="g61232-3-14-8"
         transform="matrix(0.8608329,0.510129,-0.51847209,0.84698064,123.91158,-213.39192)"
         style="fill:#fa9c0e;fill-opacity:1;stroke:#872f02;stroke-width:1.07871;stroke-dasharray:none;stroke-opacity:1"><ellipse
           style="opacity:1;fill:#ffffff;fill-opacity:1;stroke:#872f02;stroke-width:1.07871;stroke-linecap:round;stroke-linejoin:round;stroke-miterlimit:2;stroke-dasharray:none;stroke-opacity:1"
           id="path61190-1-0-44"
           cx="199.06204"
           cy="218.64038"
           rx="10.020056"
           ry="7.4342351" /><path
           style="fill:#ffffff;fill-opacity:0;stroke:#872f02;stroke-width:1.07871;stroke-linecap:round;stroke-linejoin:round;stroke-dasharray:none;stroke-opacity:1"
           d="m 190.33489,222.19589 c 0,0 1.39855,-5.22457 6.57999,-7.43423 4.2946,-1.83146 9.62756,-0.96969 9.62756,-0.96969"
           id="path61192-2-0-4" /></g><g
         id="g61196-0-27-9"
         transform="matrix(0.771438,-0.62146014,0.58856003,0.81456089,-52.127944,-23.729737)"
         style="fill:#fa9c0e;fill-opacity:1;stroke:#872f02;stroke-width:1.07841;stroke-dasharray:none;stroke-opacity:1"><ellipse
           style="opacity:1;fill:#ffffff;fill-opacity:1;stroke:#872f02;stroke-width:1.07841;stroke-linecap:round;stroke-linejoin:round;stroke-miterlimit:2;stroke-dasharray:none;stroke-opacity:1"
           id="path61186-6-82-76"
           cx="119.11056"
           cy="210.92493"
           rx="9.2728605"
           ry="6.6607866" /><path
           style="opacity:1;fill:#ffffff;fill-opacity:0;stroke:#872f02;stroke-width:1.07841;stroke-linecap:round;stroke-linejoin:round;stroke-dasharray:none;stroke-opacity:1"
           d="m 110.72854,207.95079 c -0.0216,-0.12973 5.2385,-2.04893 9.21199,-0.62336 4.4186,1.58526 7.06023,7.0953 6.99557,7.13409"
           id="path61188-2-74-99" /></g></g></g></svg>
