<?xml version="1.0" encoding="UTF-8" standalone="no"?>
<!-- Created with Inkscape (http://www.inkscape.org/) -->

<svg
   width="104.99999"
   height="99.999992"
   viewBox="0 0 27.781246 26.458332"
   version="1.1"
   id="svg5"
   xml:space="preserve"
   xmlns="http://www.w3.org/2000/svg"
   xmlns:svg="http://www.w3.org/2000/svg"><defs
     id="defs2"><clipPath
       clipPathUnits="userSpaceOnUse"
       id="clipPath28128"><rect
         style="opacity:0.594315;fill:#000000;stroke:#53545d;stroke-width:0;stroke-miterlimit:2;stroke-dasharray:none"
         id="rect28130"
         width="44.727211"
         height="43.426468"
         x="151.60069"
         y="54.556423" /></clipPath></defs><g
     id="layer1"
     transform="translate(-83.343748,-158.75)"><g
       id="g61273-20-0"
       style="opacity:1;fill:#fa9c0e;fill-opacity:1;stroke:#872f02;stroke-width:1.07525;stroke-dasharray:none;stroke-opacity:1"
       transform="matrix(0.62112631,0,0,0.60926741,-10.819431,125.51055)"
       clip-path="url(#clipPath28128)"><path
         id="path60915-32-49"
         style="opacity:1;fill:#fa9c0e;fill-opacity:1;stroke:#872f02;stroke-width:2.15049;stroke-linecap:round;stroke-linejoin:round;stroke-miterlimit:2;stroke-dasharray:none;stroke-opacity:1"
         d="m 157.9903,46.95679 c 4.714,7.281122 3.36965,15.193303 0.0932,22.798897 -3.21599,2.958479 -5.40697,6.293351 -5.40786,10.336687 -10e-4,4.652128 2.39175,8.863241 6.25731,11.907504 3.59889,6.896974 2.1581,14.286432 -0.94263,21.399412 h 31.94801 c -2.68561,-7.0683 -4.93727,-14.409869 -1.11568,-21.269641 3.96487,-3.053956 6.43046,-7.317455 6.43037,-12.037275 -8e-5,-4.254981 -2.20975,-8.04492 -5.72652,-11.220484 -2.71376,-7.333008 -4.65303,-14.915461 0.41183,-21.9151 z" /><g
         id="g61232-3-14-1"
         transform="matrix(0.8608329,0.510129,-0.51847209,0.84698064,123.91158,-213.39192)"
         style="fill:#fa9c0e;fill-opacity:1;stroke:#872f02;stroke-width:1.07871;stroke-dasharray:none;stroke-opacity:1"><ellipse
           style="opacity:1;fill:#ffffff;fill-opacity:1;stroke:#872f02;stroke-width:1.07871;stroke-linecap:round;stroke-linejoin:round;stroke-miterlimit:2;stroke-dasharray:none;stroke-opacity:1"
           id="path61190-1-0-9"
           cx="199.06204"
           cy="218.64038"
           rx="10.020056"
           ry="7.4342351" /><path
           style="fill:#ffffff;fill-opacity:0;stroke:#872f02;stroke-width:1.07871;stroke-linecap:round;stroke-linejoin:round;stroke-dasharray:none;stroke-opacity:1"
           d="m 190.33489,222.19589 c 0,0 1.39855,-5.22457 6.57999,-7.43423 4.2946,-1.83146 9.62756,-0.96969 9.62756,-0.96969"
           id="path61192-2-0-1" /></g><g
         id="g61196-0-27-7"
         transform="matrix(0.771438,-0.62146014,0.58856003,0.81456089,-52.127944,-23.729737)"
         style="fill:#fa9c0e;fill-opacity:1;stroke:#872f02;stroke-width:1.07841;stroke-dasharray:none;stroke-opacity:1"><ellipse
           style="opacity:1;fill:#ffffff;fill-opacity:1;stroke:#872f02;stroke-width:1.07841;stroke-linecap:round;stroke-linejoin:round;stroke-miterlimit:2;stroke-dasharray:none;stroke-opacity:1"
           id="path61186-6-82-8"
           cx="119.11056"
           cy="210.92493"
           rx="9.2728605"
           ry="6.6607866" /><path
           style="opacity:1;fill:#ffffff;fill-opacity:0;stroke:#872f02;stroke-width:1.07841;stroke-linecap:round;stroke-linejoin:round;stroke-dasharray:none;stroke-opacity:1"
           d="m 110.72854,207.95079 c -0.0216,-0.12973 5.2385,-2.04893 9.21199,-0.62336 4.4186,1.58526 7.06023,7.0953 6.99557,7.13409"
           id="path61188-2-74-4" /></g></g></g></svg>
