<?xml version="1.0" encoding="UTF-8" standalone="no"?>
<!-- Created with Inkscape (http://www.inkscape.org/) -->

<svg
   width="104.99999"
   height="99.999992"
   viewBox="0 0 27.781246 26.458332"
   version="1.1"
   id="svg5"
   xml:space="preserve"
   xmlns="http://www.w3.org/2000/svg"
   xmlns:svg="http://www.w3.org/2000/svg"><defs
     id="defs2"><clipPath
       clipPathUnits="userSpaceOnUse"
       id="clipPath17895"><rect
         style="opacity:0.594315;fill:#000000;stroke:#53545d;stroke-width:0;stroke-miterlimit:2;stroke-dasharray:none"
         id="rect17897"
         width="45.568748"
         height="42.860161"
         x="16.883993"
         y="55.211887" /></clipPath></defs><g
     id="layer1"
     transform="translate(-55.562499,-132.29166)"><g
       id="g60778-6-9-02"
       transform="matrix(0.60965571,0,0,0.6173176,45.269076,98.208394)"
       style="opacity:1;stroke-width:1.07822;stroke-dasharray:none"
       clip-path="url(#clipPath17895)"><path
         id="path52676-7-0-41"
         style="opacity:1;fill:#0c55ce;fill-opacity:1;stroke:#0e1184;stroke-width:2.15644;stroke-linecap:round;stroke-linejoin:round;stroke-miterlimit:2;stroke-dasharray:none;stroke-opacity:1"
         d="m 23.393814,43.425342 c 2.762827,6.195773 3.364056,12.391458 0.354311,18.587247 -3.585435,3.158534 -5.785943,7.357074 -5.785943,11.907089 0,14.580856 15.112036,23.07417 28.213465,23.07417 4.241207,0 8.164657,-0.125823 11.812614,-1.588002 -1.951783,-1.067463 -3.16454,-2.552876 -3.411723,-4.890412 6.010752,-1.545084 12.243952,-1.311106 18.725908,0.91329 V 59.283602 C 67.253725,62.299903 61.20504,62.876665 55.156319,60.805473 53.044021,55.012075 53.472974,49.218724 55.942922,43.425342 Z" /><g
         id="g55532-0-1-3"
         style="stroke-width:1.07822;stroke-dasharray:none"><path
           style="opacity:1;fill:#ffffff;fill-opacity:1;stroke:#0e1184;stroke-width:1.07822;stroke-linecap:round;stroke-linejoin:round;stroke-dasharray:none;stroke-opacity:1"
           d="m 40.095328,64.583518 c 0,3.322676 0.03005,7.103408 0.0653,10.317691 0.05056,4.610708 5.184957,7.248504 8.946354,7.248504 4.953327,0 10.121783,-2.343218 10.121783,-11.493124 -5.18504,1.257922 -13.406918,0.293114 -19.133439,-6.073071 z"
           id="path55369-4-5-56" /><path
           id="path55369-2-0-7-1-80"
           style="opacity:1;fill:#011ab7;fill-opacity:1;stroke:#0e1184;stroke-width:1.07822;stroke-linecap:round;stroke-linejoin:round;stroke-dasharray:none;stroke-opacity:1"
           d="m 43.277362,67.438842 v 5.67718 0.26148 h 0.0098 a 5.2894492,5.2894492 0 0 0 5.279781,5.02812 5.2894492,5.2894492 0 0 0 5.279264,-5.02812 h 0.0098 v -0.26148 -1.97456 c -3.420022,-0.2039 -7.212038,-1.28525 -10.578682,-3.70262 z" /></g><g
         id="g55532-4-9-5-0"
         transform="matrix(-1,0,0,1,79.178477,0)"
         style="opacity:1;stroke-width:1.07822;stroke-dasharray:none"><path
           style="opacity:1;fill:#ffffff;fill-opacity:1;stroke:#0e1184;stroke-width:1.07822;stroke-linecap:round;stroke-linejoin:round;stroke-dasharray:none;stroke-opacity:1"
           d="m 40.095328,64.583518 c 0,3.322676 0.03005,7.103408 0.0653,10.317691 0.05056,4.610708 5.184957,7.248504 8.946354,7.248504 4.953327,0 10.121783,-2.343218 10.121783,-11.493124 -5.18504,1.257922 -13.406918,0.293114 -19.133439,-6.073071 z"
           id="path55369-9-6-9-51" /><path
           id="path55369-2-0-0-2-9-7"
           style="opacity:1;fill:#011ab7;fill-opacity:1;stroke:#0e1184;stroke-width:1.07822;stroke-linecap:round;stroke-linejoin:round;stroke-dasharray:none;stroke-opacity:1"
           d="m 43.277362,67.438842 v 5.67718 0.26148 h 0.0098 a 5.2894492,5.2894492 0 0 0 5.279781,5.02812 5.2894492,5.2894492 0 0 0 5.279264,-5.02812 h 0.0098 v -0.26148 -1.97456 c -3.420022,-0.2039 -7.212038,-1.28525 -10.578682,-3.70262 z" /></g></g></g></svg>
