<?xml version="1.0" encoding="UTF-8" standalone="no"?>
<!-- Created with Inkscape (http://www.inkscape.org/) -->

<svg
   width="104.99999"
   height="99.999512"
   viewBox="0 0 27.781246 26.458204"
   version="1.1"
   id="svg5"
   xml:space="preserve"
   xmlns="http://www.w3.org/2000/svg"
   xmlns:svg="http://www.w3.org/2000/svg"><defs
     id="defs2"><clipPath
       clipPathUnits="userSpaceOnUse"
       id="clipPath29365"><rect
         style="opacity:0.594315;fill:#000000;stroke:#53545d;stroke-width:0;stroke-miterlimit:2;stroke-dasharray:none"
         id="rect29367"
         width="44.727211"
         height="43.426468"
         x="151.60069"
         y="54.556393" /></clipPath></defs><g
     id="layer1"
     transform="translate(-83.343748,-185.20833)"><g
       id="g61273-20-78"
       style="opacity:1;fill:#fa9c0e;fill-opacity:1;stroke:#872f02;stroke-width:1.07525;stroke-dasharray:none;stroke-opacity:1"
       transform="matrix(0.62112631,0,0,0.60926741,-10.819431,151.9689)"
       clip-path="url(#clipPath29365)"><path
         id="path60915-32-9"
         style="opacity:1;fill:#fa9c0e;fill-opacity:1;stroke:#872f02;stroke-width:2.15049;stroke-linecap:round;stroke-linejoin:round;stroke-miterlimit:2;stroke-dasharray:none;stroke-opacity:1"
         d="m 157.9903,46.956786 c 3.4431,5.318126 3.6534,10.972663 2.24052,16.59875 -9.1088,1.633525 -19.99888,0.68844 -27.79893,-3.570809 l 3.77802,35.298425 c 9.89049,-3.319721 15.87015,-3.933918 25.2381,-1.591173 3.5136,2.020876 7.8375,3.215375 12.5163,3.215425 11.75721,9.6e-5 21.28887,-7.528274 21.28869,-16.815034 -8e-5,-4.254981 -2.20975,-8.04492 -5.72652,-11.220484 -2.71377,-7.333009 -4.65303,-14.915461 0.41183,-21.9151 z" /><g
         id="g61232-3-14-0"
         transform="matrix(0.8608329,0.510129,-0.51847209,0.84698064,123.91158,-213.39192)"
         style="fill:#fa9c0e;fill-opacity:1;stroke:#872f02;stroke-width:1.07871;stroke-dasharray:none;stroke-opacity:1"><ellipse
           style="opacity:1;fill:#ffffff;fill-opacity:1;stroke:#872f02;stroke-width:1.07871;stroke-linecap:round;stroke-linejoin:round;stroke-miterlimit:2;stroke-dasharray:none;stroke-opacity:1"
           id="path61190-1-0-4"
           cx="199.06204"
           cy="218.64038"
           rx="10.020056"
           ry="7.4342351" /><path
           style="fill:#ffffff;fill-opacity:0;stroke:#872f02;stroke-width:1.07871;stroke-linecap:round;stroke-linejoin:round;stroke-dasharray:none;stroke-opacity:1"
           d="m 190.33489,222.19589 c 0,0 1.39855,-5.22457 6.57999,-7.43423 4.2946,-1.83146 9.62756,-0.96969 9.62756,-0.96969"
           id="path61192-2-0-3" /></g><g
         id="g61196-0-27-5"
         transform="matrix(0.771438,-0.62146014,0.58856003,0.81456089,-52.127944,-23.729737)"
         style="fill:#fa9c0e;fill-opacity:1;stroke:#872f02;stroke-width:1.07841;stroke-dasharray:none;stroke-opacity:1"><ellipse
           style="opacity:1;fill:#ffffff;fill-opacity:1;stroke:#872f02;stroke-width:1.07841;stroke-linecap:round;stroke-linejoin:round;stroke-miterlimit:2;stroke-dasharray:none;stroke-opacity:1"
           id="path61186-6-82-0"
           cx="119.11056"
           cy="210.92493"
           rx="9.2728605"
           ry="6.6607866" /><path
           style="opacity:1;fill:#ffffff;fill-opacity:0;stroke:#872f02;stroke-width:1.07841;stroke-linecap:round;stroke-linejoin:round;stroke-dasharray:none;stroke-opacity:1"
           d="m 110.72854,207.95079 c -0.0216,-0.12973 5.2385,-2.04893 9.21199,-0.62336 4.4186,1.58526 7.06023,7.0953 6.99557,7.13409"
           id="path61188-2-74-6" /></g></g></g></svg>
