<?xml version="1.0" encoding="UTF-8" standalone="no"?>
<!-- Created with Inkscape (http://www.inkscape.org/) -->

<svg
   width="104.99999"
   height="99.99971"
   viewBox="0 0 27.781246 26.458257"
   version="1.1"
   id="svg5"
   xml:space="preserve"
   xmlns="http://www.w3.org/2000/svg"
   xmlns:svg="http://www.w3.org/2000/svg"><defs
     id="defs2"><clipPath
       clipPathUnits="userSpaceOnUse"
       id="clipPath11084"><rect
         style="opacity:0.594315;fill:#000000;stroke:#53545d;stroke-width:0;stroke-miterlimit:2;stroke-dasharray:none"
         id="rect11086"
         width="46.574051"
         height="42.417076"
         x="61.22477"
         y="14.619738" /></clipPath></defs><g
     id="layer1"
     transform="translate(-27.781249,-105.83333)"><g
       id="g51862-6-7-9-4-4"
       transform="matrix(0.59649958,0,0,0.62376607,-8.7392999,96.713999)"
       style="opacity:1;stroke-width:1.0844;stroke-dasharray:none"
       clip-path="url(#clipPath11084)"><path
         id="path40975-7-1-2-9-0"
         style="opacity:1;fill:#dd1d16;fill-opacity:1;stroke:#820303;stroke-width:2.16878;stroke-linecap:round;stroke-linejoin:round;stroke-miterlimit:2;stroke-dasharray:none;stroke-opacity:1"
         d="M 84.511794,15.70419 A 22.202625,20.12417 0 0 0 70.341188,20.363441 C 63.975647,23.492276 57.610155,23.450723 51.244614,19.921872 V 51.734679 C 57.45083,49.33906 63.916589,49.176455 70.676459,51.545791 A 22.202625,20.12417 0 0 0 84.511794,55.952362 22.202625,20.12417 0 0 0 106.71417,35.828276 22.202625,20.12417 0 0 0 84.511794,15.70419 Z" /><g
         id="g42353-0-1-4-8-1"
         transform="translate(0.58771655)"
         style="stroke-width:1.0844;stroke-dasharray:none"><path
           id="path42279-0-5-3-2-5"
           style="opacity:1;fill:#ffffff;fill-opacity:1;stroke:#820303;stroke-width:1.0844;stroke-linecap:round;stroke-linejoin:round;stroke-miterlimit:2;stroke-dasharray:none;stroke-opacity:1"
           d="m 102.39065,28.560014 a 17.990656,10.6442 0 0 1 -17.139006,7.421252 17.990656,10.6442 0 0 1 -0.796851,-0.01395 9.9911814,11.427822 0 0 0 9.971485,10.91923 9.9911814,11.427822 0 0 0 9.991122,-11.427726 9.9911814,11.427822 0 0 0 -2.02675,-6.898804 z" /><path
           id="path42279-5-7-5-9-1-0"
           style="opacity:1;fill:#8f0808;fill-opacity:1;stroke:#820303;stroke-width:1.0844;stroke-linecap:round;stroke-linejoin:round;stroke-miterlimit:2;stroke-dasharray:none;stroke-opacity:1"
           d="m 97.298092,33.323472 a 17.990656,10.6442 0 0 1 -10.263973,2.599841 6.105722,6.4322305 0 0 0 -0.257865,1.842265 6.105722,6.4322305 0 0 0 6.106087,6.432165 6.105722,6.4322305 0 0 0 6.10557,-6.432165 6.105722,6.4322305 0 0 0 -1.689819,-4.442106 z" /><path
           style="fill:#820303;fill-opacity:1;stroke:#820303;stroke-width:1.0844;stroke-linecap:butt;stroke-linejoin:miter;stroke-dasharray:none;stroke-opacity:1"
           d="m 84.990344,35.360946 c 0.782291,-1.073393 1.721722,-2.115358 2.938581,-3.101838"
           id="path42348-5-4-4-3-1" /></g><g
         id="g42353-7-5-8-5-9-4"
         transform="matrix(-1,0,0,1,168.29247,0.08647248)"
         style="stroke-width:1.0844;stroke-dasharray:none"><path
           id="path42279-7-8-5-3-7-4"
           style="opacity:1;fill:#ffffff;fill-opacity:1;stroke:#820303;stroke-width:1.0844;stroke-linecap:round;stroke-linejoin:round;stroke-miterlimit:2;stroke-dasharray:none;stroke-opacity:1"
           d="m 102.39065,28.47354 a 17.990656,10.6442 0 0 1 -17.139006,7.421252 17.990656,10.6442 0 0 1 -0.796851,-0.01395 9.9911814,11.427822 0 0 0 9.971485,10.91923 9.9911814,11.427822 0 0 0 9.991122,-11.427726 9.9911814,11.427822 0 0 0 -2.02675,-6.898804 z" /><path
           id="path42279-5-1-2-9-6-6-88"
           style="opacity:1;fill:#8f0808;fill-opacity:1;stroke:#820303;stroke-width:1.0844;stroke-linecap:round;stroke-linejoin:round;stroke-miterlimit:2;stroke-dasharray:none;stroke-opacity:1"
           d="m 97.298092,33.323472 a 17.990656,10.6442 0 0 1 -10.263973,2.599841 6.105722,6.4322305 0 0 0 -0.257865,1.842265 6.105722,6.4322305 0 0 0 6.106087,6.432165 6.105722,6.4322305 0 0 0 6.10557,-6.432165 6.105722,6.4322305 0 0 0 -1.689819,-4.442106 z" /><path
           style="fill:#820303;fill-opacity:1;stroke:#820303;stroke-width:1.0844;stroke-linecap:butt;stroke-linejoin:miter;stroke-dasharray:none;stroke-opacity:1"
           d="m 84.990344,35.360946 c 0.782291,-1.073393 1.721722,-2.115358 2.938581,-3.101838"
           id="path42348-7-9-0-6-5-0" /></g></g></g></svg>
