<?xml version="1.0" encoding="UTF-8" standalone="no"?>
<!-- Created with Inkscape (http://www.inkscape.org/) -->

<svg
   width="104.99999"
   height="99.999855"
   viewBox="0 0 27.781246 26.458295"
   version="1.1"
   id="svg5"
   xml:space="preserve"
   xmlns="http://www.w3.org/2000/svg"
   xmlns:svg="http://www.w3.org/2000/svg"><defs
     id="defs2"><clipPath
       clipPathUnits="userSpaceOnUse"
       id="clipPath2473"><rect
         style="opacity:0.594315;fill:#000000;stroke:#53545d;stroke-width:0;stroke-miterlimit:2;stroke-dasharray:none"
         id="rect2475"
         width="46.574051"
         height="42.417076"
         x="61.224766"
         y="14.619735" /></clipPath></defs><g
     id="layer1"
     transform="translate(-27.781249,-264.58333)"><g
       id="g51862-6-7-9-29"
       transform="matrix(0.59649953,0,0,0.62376607,-8.7392946,255.464)"
       style="opacity:1;stroke-width:1.0844;stroke-dasharray:none"
       clip-path="url(#clipPath2473)"><path
         id="path40975-7-1-2-5"
         style="opacity:1;fill:#dd1d16;fill-opacity:1;stroke:#820303;stroke-width:2.16878;stroke-linecap:round;stroke-linejoin:round;stroke-miterlimit:2;stroke-dasharray:none;stroke-opacity:1"
         d="M 84.511791,15.704187 A 22.202625,20.12417 0 0 0 70.342051,20.36261 C 63.976164,23.491946 57.610498,23.450896 51.24461,19.92187 v 31.812807 c 5.689111,-2.196015 11.596669,-2.515077 17.748561,-0.728215 1.888694,4.83791 1.864043,9.675844 -1.11497,14.513764 h 33.267179 c -2.840901,-5.293296 -2.8173,-10.58661 -0.50594,-15.879893 a 22.202625,20.12417 0 0 0 6.07473,-13.81206 22.202625,20.12417 0 0 0 -22.202379,-20.124086 z" /><g
         id="g42353-0-1-4-1"
         transform="translate(0.58771655)"
         style="stroke-width:1.0844;stroke-dasharray:none"><path
           id="path42279-0-5-3-92"
           style="opacity:1;fill:#ffffff;fill-opacity:1;stroke:#820303;stroke-width:1.0844;stroke-linecap:round;stroke-linejoin:round;stroke-miterlimit:2;stroke-dasharray:none;stroke-opacity:1"
           d="m 102.39065,28.560014 a 17.990656,10.6442 0 0 1 -17.139006,7.421252 17.990656,10.6442 0 0 1 -0.796851,-0.01395 9.9911814,11.427822 0 0 0 9.971485,10.91923 9.9911814,11.427822 0 0 0 9.991122,-11.427726 9.9911814,11.427822 0 0 0 -2.02675,-6.898804 z" /><path
           id="path42279-5-7-5-9-0"
           style="opacity:1;fill:#8f0808;fill-opacity:1;stroke:#820303;stroke-width:1.0844;stroke-linecap:round;stroke-linejoin:round;stroke-miterlimit:2;stroke-dasharray:none;stroke-opacity:1"
           d="m 97.298092,33.323472 a 17.990656,10.6442 0 0 1 -10.263973,2.599841 6.105722,6.4322305 0 0 0 -0.257865,1.842265 6.105722,6.4322305 0 0 0 6.106087,6.432165 6.105722,6.4322305 0 0 0 6.10557,-6.432165 6.105722,6.4322305 0 0 0 -1.689819,-4.442106 z" /><path
           style="fill:#820303;fill-opacity:1;stroke:#820303;stroke-width:1.0844;stroke-linecap:butt;stroke-linejoin:miter;stroke-dasharray:none;stroke-opacity:1"
           d="m 84.990344,35.360946 c 0.782291,-1.073393 1.721722,-2.115358 2.938581,-3.101838"
           id="path42348-5-4-4-46" /></g><g
         id="g42353-7-5-8-5-1"
         transform="matrix(-1,0,0,1,168.29247,0.08647248)"
         style="stroke-width:1.0844;stroke-dasharray:none"><path
           id="path42279-7-8-5-3-11"
           style="opacity:1;fill:#ffffff;fill-opacity:1;stroke:#820303;stroke-width:1.0844;stroke-linecap:round;stroke-linejoin:round;stroke-miterlimit:2;stroke-dasharray:none;stroke-opacity:1"
           d="m 102.39065,28.47354 a 17.990656,10.6442 0 0 1 -17.139006,7.421252 17.990656,10.6442 0 0 1 -0.796851,-0.01395 9.9911814,11.427822 0 0 0 9.971485,10.91923 9.9911814,11.427822 0 0 0 9.991122,-11.427726 9.9911814,11.427822 0 0 0 -2.02675,-6.898804 z" /><path
           id="path42279-5-1-2-9-6-8"
           style="opacity:1;fill:#8f0808;fill-opacity:1;stroke:#820303;stroke-width:1.0844;stroke-linecap:round;stroke-linejoin:round;stroke-miterlimit:2;stroke-dasharray:none;stroke-opacity:1"
           d="m 97.298092,33.323472 a 17.990656,10.6442 0 0 1 -10.263973,2.599841 6.105722,6.4322305 0 0 0 -0.257865,1.842265 6.105722,6.4322305 0 0 0 6.106087,6.432165 6.105722,6.4322305 0 0 0 6.10557,-6.432165 6.105722,6.4322305 0 0 0 -1.689819,-4.442106 z" /><path
           style="fill:#820303;fill-opacity:1;stroke:#820303;stroke-width:1.0844;stroke-linecap:butt;stroke-linejoin:miter;stroke-dasharray:none;stroke-opacity:1"
           d="m 84.990344,35.360946 c 0.782291,-1.073393 1.721722,-2.115358 2.938581,-3.101838"
           id="path42348-7-9-0-6-24" /></g></g></g></svg>
